<svg width="194" height="24" viewBox="0 0 194 24" fill="none" xmlns="http://www.w3.org/2000/svg">
<g clip-path="url(#clip0)">
<path d="M7.03533 10.9466C6.96486 10.8544 6.87179 10.782 6.76512 10.7362C6.65845 10.6905 6.54179 10.6731 6.42641 10.6856C6.31103 10.6981 6.20083 10.7402 6.10647 10.8078C6.01211 10.8754 5.93678 10.9661 5.88776 11.0713L0.0728728 22.6975C0.0198999 22.8034 -0.00511106 22.9212 0.000214508 23.0395C0.00554007 23.1579 0.0410254 23.2729 0.103301 23.3736C0.165577 23.4744 0.252577 23.5576 0.35604 23.6153C0.459502 23.673 0.575994 23.7033 0.694455 23.7033H8.79139C8.92107 23.7063 9.04884 23.6716 9.15918 23.6034C9.26952 23.5352 9.35768 23.4364 9.41297 23.3191C11.1596 19.7099 10.1011 14.2221 7.03533 10.9466Z" fill="url(#paint0_linear)"/>
<path d="M11.3002 0.372236C9.85131 2.60164 9.00695 5.16945 8.84999 7.82367C8.69303 10.4779 9.22887 13.1273 10.4049 15.512L14.3085 23.3192C14.3662 23.4346 14.455 23.5317 14.5648 23.5996C14.6745 23.6674 14.801 23.7034 14.9301 23.7034H23.0256C23.1441 23.7034 23.2605 23.6731 23.364 23.6154C23.4675 23.5577 23.5545 23.4745 23.6167 23.3738C23.679 23.273 23.7145 23.158 23.7198 23.0396C23.7252 22.9213 23.7001 22.8036 23.6472 22.6976C23.6472 22.6976 12.756 0.912758 12.4823 0.367874C12.4282 0.256961 12.3439 0.163549 12.2391 0.0983531C12.1343 0.0331567 12.0133 -0.00118334 11.8899 -0.000727951C11.7665 -0.000272564 11.6457 0.0349598 11.5414 0.100928C11.4371 0.166896 11.3535 0.260927 11.3002 0.372236Z" fill="#2684FF"/>
<path d="M106.256 9.69415C106.256 12.5731 107.592 14.8587 112.815 15.8678C115.932 16.5221 116.585 17.0252 116.585 18.0641C116.585 19.0731 115.931 19.7264 113.735 19.7264C111.082 19.6787 108.482 18.9751 106.167 17.6784V22.3675C107.74 23.1392 109.818 24 113.676 24C119.137 24 121.304 21.5646 121.304 17.9452L106.256 9.69415ZM121.304 17.9452C121.304 14.532 119.494 12.9289 114.389 11.8312C111.569 11.2078 110.886 10.5847 110.886 9.69415C110.886 8.56731 111.895 8.09149 113.765 8.09149C116.021 8.09149 118.247 8.77414 120.354 9.72396V5.24202C118.334 4.32236 116.133 3.86606 113.914 3.90653C108.868 3.90653 106.256 6.10279 106.256 9.69415" fill="#0052CC"/>
<path d="M176.417 4.20312V23.7034H180.573V8.83337L182.324 12.7806L188.201 23.7034H193.424V4.20312H189.269V16.7878L187.696 13.1368L182.977 4.20312H176.417Z" fill="#0052CC"/>
<path d="M149.989 4.20312H145.448V23.7034H149.989V4.20312Z" fill="#0052CC"/>
<path d="M140.208 17.9452C140.208 14.532 138.397 12.9289 133.292 11.8312C130.473 11.2078 129.79 10.5847 129.79 9.69415C129.79 8.56731 130.799 8.09149 132.669 8.09149C134.925 8.09149 137.151 8.77414 139.258 9.72396V5.24202C137.238 4.32236 135.037 3.86606 132.817 3.90653C127.772 3.90653 125.16 6.10279 125.16 9.69415C125.16 12.5731 126.495 14.8587 131.719 15.8678C134.836 16.5221 135.489 17.0252 135.489 18.0641C135.489 19.0731 134.834 19.7264 132.639 19.7264C129.986 19.6787 127.386 18.9751 125.071 17.6784V22.3675C126.644 23.1392 128.721 24 132.58 24C138.041 24 140.208 21.5646 140.208 17.9452Z" fill="#0052CC"/>
<path d="M70.9785 4.20312V23.7034H80.3124L81.7821 19.4886H75.5492V4.20312H70.9785Z" fill="#0052CC"/>
<path d="M52.5376 4.20312V8.41753H57.5833V23.7034H62.154V8.41753H67.5559V4.20312H52.5376Z" fill="#0052CC"/>
<path d="M45.9102 4.20312H39.9201L33.1201 23.7034H38.3131L39.2771 20.4192C41.6512 21.1163 44.1758 21.1163 46.5499 20.4192L47.5139 23.7034H52.708L45.9102 4.20312ZM42.915 16.9027C42.0691 16.9026 41.2275 16.7816 40.4159 16.5432L42.915 8.03331L45.414 16.5461C44.6023 16.7835 43.7607 16.9036 42.915 16.9027Z" fill="#0052CC"/>
<path d="M96.404 4.20312H90.4142L83.6143 23.7034H88.8083L89.7723 20.4192C92.1465 21.1163 94.671 21.1163 97.0452 20.4192L98.0092 23.7034H103.203L96.404 4.20312ZM93.4091 16.9027C92.5632 16.9026 91.7217 16.7816 90.91 16.5432L93.4091 8.03331L95.9081 16.5461C95.0964 16.7835 94.2548 16.9036 93.4091 16.9027Z" fill="#0052CC"/>
<path d="M166.353 4.20312H160.363L153.563 23.7034H158.758L159.722 20.4192C162.096 21.1163 164.62 21.1163 166.994 20.4192L167.958 23.7034H173.153L166.353 4.20312ZM163.356 16.9027C162.511 16.9026 161.669 16.7816 160.857 16.5432L163.356 8.03331L165.856 16.5461C165.044 16.7835 164.202 16.9036 163.356 16.9027Z" fill="#0052CC"/>
</g>
<defs>
<linearGradient id="paint0_linear" x1="10.2221" y1="12.7409" x2="4.08553" y2="23.3699" gradientUnits="userSpaceOnUse">
<stop stop-color="#0052CC"/>
<stop offset="0.923" stop-color="#2684FF"/>
</linearGradient>
<clipPath id="clip0">
<rect width="193.425" height="24" fill="white"/>
</clipPath>
</defs>
</svg>
