<svg width="74" height="25" viewBox="0 0 74 25" fill="none" xmlns="http://www.w3.org/2000/svg">
<g clip-path="url(#clip0)">
<path fill-rule="evenodd" clip-rule="evenodd" d="M60.237 24.0814H60.3983C60.4758 24.0814 60.5137 24.1133 60.5137 24.175C60.5137 24.2396 60.4719 24.2714 60.3863 24.2714H60.237V24.0814ZM60.5385 24.3561C60.6232 24.3202 60.665 24.2615 60.665 24.177C60.665 24.1174 60.6431 24.0695 60.6013 24.0307C60.5584 23.9939 60.4958 23.9741 60.4082 23.9741H60.0919V24.6545H60.237V24.38H60.4013L60.5116 24.6545H60.6639L60.5385 24.3561ZM60.7087 24.6656C60.6132 24.7631 60.5007 24.8108 60.3684 24.8108C60.236 24.8108 60.1216 24.7631 60.0271 24.6656C59.9315 24.5681 59.8849 24.4517 59.8849 24.3133C59.8849 24.178 59.9315 24.0606 60.0262 23.9642C60.1216 23.8665 60.236 23.8177 60.3703 23.8177C60.5027 23.8177 60.6152 23.8665 60.7096 23.9642C60.8032 24.0617 60.8509 24.1789 60.8509 24.3133C60.8509 24.4517 60.8022 24.5681 60.7087 24.6656ZM60.7853 23.8974C60.67 23.7811 60.5326 23.7254 60.3703 23.7254C60.2072 23.7254 60.0678 23.7811 59.9525 23.8974C59.8371 24.0138 59.7794 24.152 59.7794 24.3133C59.7794 24.4764 59.8371 24.6157 59.9525 24.7321C60.0689 24.8465 60.2072 24.9063 60.3694 24.9063C60.5306 24.9063 60.6689 24.8465 60.7833 24.7321C60.8997 24.6157 60.9564 24.4764 60.9564 24.3152C60.9564 24.152 60.8997 24.0138 60.7853 23.8974ZM6.90294 10.4136C6.77269 10.0654 6.8065 9.43964 7.1339 8.98395C7.60845 8.31919 8.64722 7.92026 10.0819 7.92026C10.2063 7.92026 10.3287 7.92418 10.45 7.92827L8.45719 10.9976C8.57552 11.0056 8.69687 11.0106 8.82427 11.0097C10.9983 11.0037 12.245 9.86436 12.7046 9.34604C12.7046 9.34604 13.6071 8.09339 13.6221 8.07346C12.7634 7.74518 11.4968 7.395 9.97354 7.395C7.84332 7.395 6.54387 8.26047 6.53977 9.48643C6.53889 9.85546 6.66327 10.1688 6.90294 10.4136ZM51.5422 9.32914C51.5422 8.93413 51.2754 8.73217 50.9669 8.73217C50.4258 8.73217 50.0934 9.23555 50.0934 9.66241C50.0934 9.99977 50.2943 10.2375 50.6915 10.2375C51.1699 10.2375 51.5422 9.78785 51.5422 9.32914ZM5.97876 10.0565C6.26025 10.8763 7.18959 11.3996 8.75861 11.3996C10.0799 11.3996 11.1146 11.0056 11.8628 10.546C10.6938 12.2145 9.14668 14.5139 8.58352 15.4403C8.30684 15.8968 8.11182 16.268 8.11182 16.6143C8.11182 17.1993 8.69295 17.5267 9.35753 17.5267C10.1575 17.5267 10.8043 16.9525 11.6221 15.9168L11.9087 15.5347C11.9087 15.5347 11.8678 15.7417 11.8678 15.9287C11.8678 16.7954 12.3963 17.5287 14.0559 17.5287C16.3174 17.5287 18.4138 16.3426 20.4643 14.3885L20.8981 13.9757C20.2444 14.8702 19.9809 15.4929 19.9809 15.8721C19.9809 16.3497 20.3131 16.6342 20.8485 16.6342C21.6693 16.6342 22.5568 15.9885 23.2612 15.2641L23.5815 14.9317C23.3696 15.3397 23.2612 15.6602 23.2612 15.9267C23.2612 16.3157 23.4981 16.6401 24.071 16.6401C25.0801 16.6401 26.0441 15.7317 26.8491 14.868C26.7297 15.1477 26.6192 15.4968 26.6192 15.7636C26.6192 16.3059 26.9813 16.6273 27.5655 16.6273C28.3217 16.6273 29.0818 16.2162 29.9563 15.2303C30.0688 15.1059 30.2409 14.9109 30.396 14.7239C30.2398 15.0403 30.0558 15.4403 30.0558 15.8452C30.0558 16.3287 30.3483 16.6223 30.9184 16.6223C32.1483 16.6223 33.2547 15.3048 33.9193 14.5727C33.596 15.1079 33.3938 15.4871 33.3938 15.858C33.3938 16.3963 33.7819 16.6242 34.2595 16.6242C35.342 16.6242 36.337 15.6541 37.0972 14.702C36.9121 15.0671 36.716 15.4372 36.716 15.8273C36.716 16.3406 37.0683 16.6162 37.6564 16.6162C38.1847 16.6162 38.8592 16.4123 39.6114 15.7417C40.3069 15.1239 40.8313 14.4383 41.254 13.7885C41.4471 14.1179 41.7606 14.3148 42.1197 14.4253C41.9665 14.7686 41.869 15.1477 41.869 15.463C41.869 16.1575 42.3058 16.6203 43.2421 16.6203C44.8291 16.6203 46.1474 15.2581 46.9643 14.3855C46.5623 15.073 46.426 15.489 46.426 15.8253C46.426 16.3287 46.7493 16.6262 47.3443 16.6262C48.3781 16.6262 49.4746 15.5646 50.4258 14.6442C50.7591 14.3189 51.5231 13.5458 52.6156 12.3818C52.54 12.7309 52.4276 13.289 52.3788 13.5696C52.0026 15.663 51.4306 16.3137 50.7272 16.3137C50.1053 16.3137 50.2605 15.6411 49.7989 15.6411C49.6178 15.6411 49.4804 15.7904 49.4804 15.9815C49.4804 16.3406 49.9023 16.655 50.6416 16.655C52.0494 16.655 53.0514 15.7865 53.8425 15.0741C54.2375 14.7198 54.6334 14.3577 55.0691 13.9696C54.8006 14.4403 54.5738 14.9566 54.5738 15.5217C54.5738 16.1497 54.9846 16.6262 55.878 16.6262C57.5963 16.6262 58.9138 15.0383 59.6292 14.1189C60.6052 12.8643 61.3594 11.922 61.8052 11.922C61.9077 11.922 61.9664 11.9748 61.9664 12.0793C61.9664 12.2732 61.8279 12.5061 61.5683 12.9588C60.7395 14.4095 59.5396 16.1904 59.3506 16.5098L60.7603 16.4561C61.418 15.3895 63.2091 13.0503 64.1016 12.2862C63.8747 12.6076 63.7413 12.9787 63.7413 13.2782C63.7413 13.8026 64.0797 14.1269 64.7573 14.1269C65.1105 14.1269 65.388 14.0453 65.6546 13.9079L65.5412 13.6353C65.3662 13.7298 65.2158 13.7796 65.0368 13.7796C64.7233 13.7796 64.6299 13.5638 64.6299 13.3229C64.6299 12.7657 65.1482 12.0663 65.6845 11.8981C65.6806 11.6414 65.4377 11.4533 65.0496 11.4533C64.5135 11.4533 63.7861 11.8723 62.2787 13.8026C62.7274 12.9787 62.9553 12.5846 62.9553 12.112C62.9553 11.7449 62.7075 11.4704 62.1892 11.4704C61.2191 11.4704 60.6032 12.3369 59.3267 13.9577C58.5218 14.9796 57.4631 16.058 56.4323 16.058C56.0691 16.058 55.886 15.8721 55.886 15.5616C55.8852 15.1746 56.0722 14.7098 56.2115 14.4572C57.5428 14.3148 59.447 13.2374 59.447 12.0713C59.447 11.5818 59.1157 11.3788 58.5506 11.3788C57.87 11.3788 57.0213 11.7061 56.1248 12.5408C55.2542 13.3558 53.7966 14.7289 53.0702 15.3129C53.4165 14.7945 53.5081 14.294 53.5081 13.699C53.5081 13.118 53.4475 12.6743 53.4475 12.1081C53.4475 12.0394 53.4533 11.923 53.4624 11.8633C53.7489 11.8076 53.9946 11.6037 53.9946 11.2951C53.9946 11.0643 53.8464 10.8862 53.558 10.8862C53.2037 10.8862 52.8973 11.1499 52.751 11.743C52.3181 12.2186 51.6197 12.9458 50.9948 13.5846C49.4973 15.1139 48.4735 16.0331 47.9125 16.0331C47.7662 16.0331 47.6757 15.9636 47.6757 15.7984C47.6757 15.491 48.1144 14.7209 48.4954 14.1129C48.4954 14.1129 48.8815 13.4871 50.0655 11.6106L48.6616 11.6921C48.5552 11.8693 48.1721 12.3965 48.0956 12.494C47.1114 13.7885 45.2917 16.058 43.7972 16.058C43.3377 16.058 43.1893 15.8233 43.1893 15.504C43.1893 15.1586 43.3515 14.7766 43.4997 14.4622C45.3684 14.2034 46.7424 12.9568 46.7424 12.0713C46.7424 11.6045 46.4598 11.3788 45.8558 11.3788C44.1665 11.3788 42.8183 13.0583 42.272 14.1129C41.9108 14.0104 41.6103 13.7976 41.4621 13.4483C41.9814 12.5787 42.2759 11.8355 42.2759 11.5718C42.2759 11.4314 42.1119 11.3261 41.8928 11.3261C41.6113 11.3261 41.4402 11.4663 41.3357 11.6195C41.1199 11.935 40.9745 12.5309 40.9944 13.1965C40.6551 14.1776 39.2274 16.0253 38.2055 16.0253C38.0116 16.0253 37.939 15.9328 37.939 15.7805C37.939 15.4741 38.3002 14.7705 38.9648 13.6931C39.0503 13.5519 39.8432 12.2424 40.2373 11.6126L38.8404 11.6882C38.5091 12.1976 38.2315 12.6394 37.8792 13.1369C36.4038 15.2193 35.4018 16.0273 34.8645 16.0273C34.7093 16.0273 34.6317 15.9556 34.6317 15.8193C34.6317 15.686 34.7063 15.5139 34.8486 15.2483C35.3013 14.4015 36.3888 12.7956 37.1788 11.6145L35.7628 11.6843C35.6007 11.927 35.1351 12.5768 34.957 12.8026C32.975 15.299 32.0239 16.0173 31.5384 16.0173C31.3652 16.0173 31.3065 15.9148 31.3065 15.7696C31.3065 15.3627 31.7483 14.5995 32.6268 13.1159L36.0345 7.52917L36.3988 7.97791C36.3988 7.97791 36.3063 8.13218 36.1579 8.37791L73.6602 1.08585L65.5432 13.6353L65.9103 13.8682L66.1103 14.3059C65.8645 14.4453 65.4557 14.6572 64.9462 14.6572C64.9243 14.6572 64.9025 14.6572 64.8815 14.6552L58.291 24.8456L29.4797 19.1306L0.160156 23.7789L7.883 11.8812C6.90988 11.6843 6.08213 11.1499 5.97769 10.0535L5.97876 10.0565ZM14.1881 7.30533L15.8686 7.23273C15.7135 7.4466 15.4348 7.82881 15.1115 8.28343C15.4149 8.42773 15.7243 8.58289 16.0229 8.74303C17.0596 7.42472 18.0266 6.82686 19.2853 6.82686C20.6444 6.82686 21.1549 7.60283 21.1549 8.39588C21.1549 9.1142 20.733 9.93909 20.2366 10.4366C19.5668 11.1081 18.6446 11.4216 17.8983 11.5857C18.3103 11.8117 19.0654 12.1408 19.0654 13.3378C19.0654 14.3428 18.5172 15.2641 17.8775 15.9805C19.1092 15.2702 20.9042 13.5696 21.6892 12.6076C21.8693 12.3827 22.1976 11.9311 22.3648 11.6932L23.8313 11.6026C23.8313 11.6026 21.9607 14.4314 21.5568 15.1258C21.33 15.5187 21.2684 15.691 21.2684 15.8273C21.2684 15.9148 21.325 16.0084 21.4912 16.0084C22.0593 16.0084 23.1289 15.0502 23.891 14.0622C24.2372 13.6104 25.4948 11.7021 25.4948 11.7021L26.9843 11.6086C25.7785 13.4622 25.3835 14.084 25.3835 14.084C24.9945 14.712 24.666 15.273 24.5804 15.5685C24.5536 15.658 24.5397 15.7337 24.5397 15.7974C24.5397 15.9406 24.6114 16.0123 24.7546 16.0123C25.6203 16.0123 27.1713 13.9677 27.6639 13.3438C28.5694 12.2015 29.6688 11.4056 30.8569 11.4056C31.396 11.4056 31.7442 11.6126 31.9115 11.9638C32.381 11.1926 33.2656 9.73109 33.8606 8.74801L15.403 1.66288L14.6946 1.39029L14.2806 2.02711L11.0102 7.06458C12.1425 7.18202 13.0858 7.45959 13.8548 7.7482C13.9772 7.58005 14.0797 7.44162 14.1881 7.30533ZM15.2359 13.0284V13.4075C13.437 13.4373 12.3185 14.6502 12.3185 15.9029C12.3185 16.5794 12.6817 17.047 13.6548 17.047C15.9124 17.047 17.4645 14.6264 17.4645 13.0383C17.4645 12.3181 17.2049 11.6763 16.0656 11.6763H15.5254C15.3413 11.6763 15.1941 11.6901 15.1105 11.707L15.4437 11.2086C16.4188 11.2086 17.187 11.1868 17.7402 10.928C18.9699 10.345 19.6136 8.97292 19.6136 8.25656C19.6136 7.76706 19.4206 7.37205 18.7917 7.37205C17.8396 7.37205 16.987 8.28947 16.4398 8.99089C16.9153 9.27647 17.2466 9.52309 17.4845 9.70814L17.2596 10.0028C16.9562 9.76401 16.6019 9.52024 16.2069 9.29231C15.6089 10.0893 14.2479 12.1937 13.3085 13.5696C13.9285 13.1608 14.7235 13.0284 15.2359 13.0284ZM46.1145 11.9768C46.1145 11.8335 46.0339 11.738 45.8768 11.738C45.2122 11.738 44.3385 12.92 43.6819 14.1189C44.7892 13.9428 46.1145 12.8602 46.1145 11.9768ZM58.8152 11.9777C58.8152 11.8335 58.7517 11.738 58.5933 11.738C58.0193 11.738 57.2193 12.6095 56.3955 14.1129C57.5019 13.9328 58.8152 12.7956 58.8152 11.9777ZM28.2649 15.9943C28.5464 15.9943 29.0032 15.7935 29.6647 15.0552C30.2887 14.3657 30.998 13.4503 31.5334 12.5369C31.5811 12.4574 31.606 12.3488 31.606 12.2693C31.606 11.9887 31.419 11.8286 31.1065 11.8286C30.5542 11.8286 30.006 12.2045 29.2558 13.1497C28.6092 13.9616 27.9485 15.1746 27.9485 15.7009C27.9485 15.8372 27.9854 15.9943 28.2649 15.9943ZM9.89685 15.9835C10.1974 15.476 14.5484 9.07843 14.8866 8.60388C15.1911 8.74516 15.4916 8.89142 15.79 9.04961C15.0806 10.0128 14.0598 11.6275 13.0299 13.1319C11.8778 14.8134 11.044 15.9984 10.3883 16.5666C10.1337 16.7885 9.95165 16.8988 9.78351 16.8988C9.64312 16.8988 9.58742 16.8143 9.58742 16.7148C9.58742 16.5954 9.64418 16.4143 9.89685 15.9835Z" fill="#5D646C"/>
<path fill-rule="evenodd" clip-rule="evenodd" d="M15.1092 11.7076L15.4433 11.2081C16.4184 11.2081 17.1876 11.1873 17.7417 10.9286C18.9705 10.3455 19.6134 8.97344 19.6134 8.25601C19.6134 7.76652 19.4203 7.37258 18.7915 7.37258C17.8392 7.37258 16.9876 8.28893 16.4403 8.99141C16.9159 9.27682 17.2463 9.52361 17.4851 9.70777L17.2592 10.0023C16.9558 9.76436 16.6015 9.52059 16.2076 9.29177C15.6095 10.0887 14.2485 12.1931 13.3083 13.5691C13.9281 13.1613 14.7231 13.0278 15.2364 13.0278V13.4081C13.4366 13.4369 12.3183 14.6497 12.3183 15.9034C12.3183 16.579 12.6824 17.0466 13.6555 17.0466C15.9131 17.0466 17.4641 14.6267 17.4641 13.0389C17.4641 12.3175 17.2045 11.6768 16.0663 11.6768H15.5261C15.341 11.6768 15.1937 11.6898 15.1092 11.7076ZM13.0306 13.1325C14.0594 11.628 15.0812 10.0131 15.7907 9.04906C15.4921 8.89177 15.1907 8.74462 14.8862 8.60423C14.5489 9.07789 10.197 15.4755 9.89752 15.984C9.64485 16.4137 9.58613 16.5949 9.58613 16.7143C9.58613 16.8148 9.64378 16.8993 9.78311 16.8993C9.95125 16.8993 10.1333 16.7879 10.3881 16.5669C11.0438 15.9979 11.8784 14.8129 13.0306 13.1325ZM12.7042 9.34657C12.7042 9.34657 13.6067 8.09285 13.6226 8.07399C12.764 7.7457 11.4964 7.39535 9.97403 7.39535C7.84292 7.39535 6.54454 8.26011 6.54044 9.48678C6.53743 10.433 7.36428 11.0142 8.826 11.0101C10.9979 11.0042 12.2446 9.864 12.7042 9.34657ZM26.8496 14.8686C26.0437 15.7322 25.0797 16.6397 24.0717 16.6397C23.4986 16.6397 23.2608 16.3162 23.2608 15.9262C23.2608 15.6605 23.3703 15.3392 23.5822 14.9314L23.2608 15.2636C22.5564 15.989 21.6689 16.6337 20.849 16.6337C20.3127 16.6337 19.9805 16.3491 19.9805 15.8725C19.9805 15.4935 20.2442 14.8705 20.8968 13.9751L20.465 14.388C18.4134 16.3422 16.3181 17.5292 14.0555 17.5292C12.3959 17.5292 11.8676 16.7949 11.8676 15.9281C11.8676 15.7422 11.9083 15.5353 11.9083 15.5353L11.6217 15.9162C10.805 16.952 10.1571 17.5271 9.3582 17.5271C8.69362 17.5271 8.11249 17.1998 8.11249 16.6148C8.11249 16.2685 8.30662 15.8974 8.58419 15.4417C9.14735 14.5134 10.6945 12.2161 11.8626 10.5455C11.1144 11.0062 10.0795 11.3992 8.75821 11.3992C6.84596 11.3992 5.88477 10.6211 5.88477 9.47788C5.88477 7.99232 7.4141 7.00639 9.89343 7.00639C11.5333 7.00639 12.8455 7.37062 13.8544 7.74855C13.9768 7.5804 14.0804 7.44215 14.1878 7.30496L15.8693 7.23325C15.7131 7.44713 15.4336 7.83129 15.1111 8.28395C15.4165 8.42719 15.725 8.58234 16.0225 8.74355C17.0592 7.42435 18.0264 6.82721 19.2849 6.82721C20.6442 6.82721 21.1545 7.60229 21.1545 8.3964C21.1545 9.11472 20.7337 9.93962 20.2362 10.4369C19.5666 11.1076 18.6453 11.422 17.899 11.5851C18.3109 11.8111 19.0661 12.1414 19.0661 13.3383C19.0661 14.3422 18.5189 15.2636 17.8771 15.981C19.1098 15.2696 20.9038 13.5691 21.6888 12.607C21.8708 12.3832 22.1972 11.9314 22.3644 11.6937L23.832 11.6031C23.832 11.6031 21.9605 14.4308 21.5564 15.1264C21.3287 15.5184 21.268 15.6915 21.268 15.8278C21.268 15.9153 21.3246 16.0079 21.4918 16.0079C22.0589 16.0079 23.1295 15.0497 23.8897 14.0616C24.2379 13.61 25.4944 11.7017 25.4944 11.7017L26.985 11.6081C25.7781 13.4627 25.3831 14.0846 25.3831 14.0846C24.9952 14.7123 24.6658 15.2735 24.5811 15.5691C24.5534 15.6586 24.5404 15.7342 24.5404 15.7968C24.5404 15.9411 24.6121 16.0118 24.7542 16.0118C25.6199 16.0118 27.17 13.9671 27.6636 13.3444C28.57 12.2012 29.6695 11.4051 30.8565 11.4051C31.3956 11.4051 31.7449 11.612 31.912 11.9643C32.6604 10.7336 34.4662 7.74855 34.4662 7.74855L36.0341 7.52969C34.9219 9.33767 32.7936 12.835 32.6264 13.1164C31.7488 14.599 31.3061 15.363 31.3061 15.7691C31.3061 15.9153 31.3659 16.0168 31.539 16.0168C32.0235 16.0168 32.9748 15.2984 34.9566 12.8031C35.1358 12.5762 35.6003 11.9275 35.7635 11.6848L37.1793 11.6142C36.3904 12.7962 35.3019 14.4009 34.8491 15.2486C34.7059 15.5134 34.6313 15.6865 34.6313 15.8198C34.6313 15.9561 34.7089 16.0278 34.8641 16.0278C35.4023 16.0278 36.4034 15.2189 37.8798 13.1374C38.2311 12.6399 38.5097 12.1971 38.841 11.6876L40.2378 11.612C39.843 12.2419 39.0499 13.5522 38.9654 13.6926C38.3007 14.7702 37.9386 15.4735 37.9386 15.781C37.9386 15.9322 38.0112 16.0257 38.2062 16.0257C39.227 16.0257 40.6558 14.1771 40.9951 13.196C40.9741 12.5305 41.1204 11.9355 41.3353 11.619C41.4408 11.4668 41.612 11.3255 41.8935 11.3255C42.1123 11.3255 42.2766 11.4319 42.2766 11.5713C42.2766 11.8359 41.9821 12.5793 41.4616 13.4488C41.6109 13.7979 41.9104 14.01 42.2727 14.1134C42.8189 13.0577 44.166 11.3793 45.8555 11.3793C46.4605 11.3793 46.742 11.6042 46.742 12.0707C46.742 12.9572 45.368 14.204 43.4993 14.4627C43.3511 14.7771 43.1899 15.1591 43.1899 15.5034C43.1899 15.8237 43.3372 16.0575 43.7968 16.0575C45.2913 16.0575 47.1112 13.789 48.0952 12.4946C48.1717 12.3962 48.5548 11.8688 48.6623 11.6917L50.0661 11.6101C48.8802 13.4865 48.4961 14.1134 48.4961 14.1134C48.114 14.7203 47.6753 15.4915 47.6753 15.7979C47.6753 15.963 47.7658 16.0337 47.9132 16.0337C48.4733 16.0337 49.498 15.1143 50.9944 13.5851C51.6193 12.9453 52.3177 12.2189 52.7506 11.7424C52.8969 11.1494 53.2033 10.8868 53.5584 10.8868C53.847 10.8868 53.9942 11.0649 53.9942 11.2957C53.9942 11.6042 53.7495 11.8081 53.4631 11.8627C53.4531 11.9236 53.4471 12.0399 53.4471 12.1076C53.4471 12.6746 53.5088 13.1184 53.5088 13.6995C53.5088 14.2945 53.4163 14.7949 53.07 15.3134C53.7972 14.7283 55.2549 13.3552 56.1265 12.5414C57.021 11.7056 57.8707 11.3793 58.5502 11.3793C59.1153 11.3793 59.4477 11.5812 59.4477 12.0707C59.4477 13.2369 57.5424 14.3145 56.2121 14.4577C56.0728 14.7104 55.8847 15.1741 55.8858 15.5611C55.8858 15.8725 56.0687 16.0575 56.4319 16.0575C57.4627 16.0575 58.5224 14.9791 59.3263 13.9582C60.6039 12.3375 61.2197 11.4707 62.1887 11.4707C62.7081 11.4707 62.956 11.7444 62.956 12.1136C62.956 12.5851 62.7272 12.9782 62.2784 13.802C63.7868 11.8727 64.514 11.4538 65.0494 11.4538C65.4374 11.4538 65.6801 11.6419 65.6841 11.8976C65.1478 12.0657 64.6295 12.7652 64.6295 13.3225C64.6295 13.5632 64.722 13.7791 65.0375 13.7791C65.2156 13.7791 65.3668 13.7294 65.5419 13.6348L65.6552 13.9084C65.3876 14.0458 65.1109 14.1273 64.7569 14.1273C64.0802 14.1273 63.7419 13.802 63.7419 13.2777C63.7419 12.9782 63.8752 12.607 64.1012 12.2857C63.2097 13.0508 61.4186 15.389 60.761 16.4555L59.3512 16.5093C59.5391 16.191 60.7391 14.4098 61.5679 12.9593C61.8277 12.5065 61.9669 12.2727 61.9669 12.0787C61.9669 11.9752 61.9072 11.9225 61.8058 11.9225C61.359 11.9225 60.6058 12.8638 59.6288 14.1195C58.9133 15.0387 57.5961 16.6256 55.8787 16.6256C54.9842 16.6256 54.5734 16.15 54.5734 15.5223C54.5734 14.9572 54.8011 14.4397 55.0689 13.9691C54.634 14.3572 54.2371 14.7193 53.8431 15.0755C53.052 15.7869 52.0501 16.6555 50.6423 16.6555C49.903 16.6555 49.4811 16.3401 49.4811 15.9819C49.4811 15.791 49.6185 15.6386 49.7985 15.6386C50.2603 15.6386 50.106 16.3143 50.7279 16.3143C51.4302 16.3143 52.0033 15.6636 52.3786 13.5691C52.4282 13.2896 52.5407 12.7305 52.6152 12.3821C51.5238 13.5463 50.7587 14.3203 50.4254 14.6438C49.4742 15.565 48.3786 16.6256 47.3439 16.6256C46.75 16.6256 46.4265 16.3303 46.4265 15.8278C46.4265 15.4895 46.5619 15.0735 46.9649 14.3851C46.147 15.2577 44.8287 16.6198 43.2417 16.6198C42.3054 16.6198 41.8696 16.158 41.8696 15.4627C41.8696 15.1472 41.9661 14.768 42.1204 14.4248C41.7613 14.3145 41.4478 14.1184 41.2538 13.789C40.8319 14.4378 40.3056 15.1242 39.6111 15.7422C38.8588 16.4128 38.1843 16.6167 37.656 16.6167C37.067 16.6167 36.7167 16.3401 36.7167 15.8278C36.7167 15.4367 36.9117 15.0677 37.0978 14.7024C36.3366 15.6547 35.3416 16.6237 34.2593 16.6237C33.7836 16.6237 33.3945 16.3968 33.3945 15.8586C33.3945 15.4874 33.5965 15.1073 33.9189 14.573C33.2543 15.3043 32.1479 16.6217 30.9191 16.6217C30.3479 16.6217 30.0554 16.3303 30.0554 15.8447C30.0554 15.4408 30.2396 15.0417 30.3967 14.7234C30.2405 14.9114 30.0684 15.1065 29.957 15.2308C29.0814 16.2159 28.3222 16.6267 27.5661 16.6267C26.982 16.6267 26.6188 16.3054 26.6188 15.763C26.6188 15.4974 26.7313 15.1483 26.8496 14.8686ZM31.534 12.5374C31.5817 12.4577 31.6056 12.3494 31.6056 12.2688C31.6056 11.9882 31.4196 11.828 31.1052 11.828C30.5549 11.828 30.0067 12.2051 29.2565 13.1494C28.6088 13.9632 27.9481 15.1741 27.9481 15.7015C27.9481 15.8367 27.985 15.9949 28.2656 15.9949C28.5471 15.9949 29.0038 15.7929 29.6654 15.0547C30.2892 14.3661 30.9986 13.4508 31.534 12.5374ZM43.6824 14.1195C44.7888 13.9422 46.1142 12.8597 46.1142 11.9773C46.1142 11.8339 46.0336 11.7375 45.8774 11.7375C45.2127 11.7375 44.3392 12.9205 43.6824 14.1195ZM56.3951 14.1134C57.5014 13.9323 58.8158 12.7962 58.8158 11.9773C58.8158 11.8339 58.7512 11.7375 58.5931 11.7375C58.0199 11.7375 57.2199 12.609 56.3951 14.1134ZM50.093 9.66187C50.093 9.23607 50.4254 8.7327 50.9667 8.7327C51.277 8.7327 51.5417 8.93465 51.5417 9.3286C51.5417 9.78731 51.1695 10.2371 50.693 10.2371C50.2941 10.2371 50.093 10.0003 50.093 9.66187Z" fill="#FFFFFE"/>
</g>
<defs>
<clipPath id="clip0">
<rect width="73.5" height="25" fill="white" transform="translate(0.160156)"/>
</clipPath>
</defs>
</svg>
