<svg width="18" height="18" viewBox="0 0 18 18" fill="none" xmlns="http://www.w3.org/2000/svg">
<path d="M14.1389 10.9825C13.5791 10.8621 13.1363 11.122 12.7442 11.3489C12.3427 11.5828 11.5791 12.2022 11.1415 12.0437C8.90074 11.1211 6.79328 9.15987 5.88099 6.91015C5.7202 6.46315 6.33671 5.69477 6.56886 5.28848C6.79414 4.89519 7.04865 4.4482 6.93257 3.88425C6.82767 3.37748 5.47085 1.65099 4.99106 1.17887C4.67464 0.867014 4.35049 0.695492 4.01773 0.667771C2.76667 0.614062 1.36943 2.28337 1.12438 2.68273C0.510458 3.53428 0.513897 4.66736 1.1347 6.04128C2.63081 9.73161 8.2894 15.3009 11.9936 16.8533C12.6771 17.1729 13.3022 17.3332 13.8637 17.3332C14.4131 17.3332 14.9024 17.1798 15.3229 16.8758C15.6401 16.693 17.3779 15.2264 17.3323 13.9417C17.3048 13.6143 17.1337 13.2868 16.8258 12.9697C16.3572 12.4855 14.6419 11.0882 14.1389 10.9825Z" fill="white"/>
</svg>
