<svg width="155" height="37" viewBox="0 0 155 37" fill="none" xmlns="http://www.w3.org/2000/svg">
<g clip-path="url(#clip0)">
<path d="M0 3.64209V29.7701H7.678C16.054 29.7701 21.455 24.8841 21.455 16.7211C21.485 8.52808 16.083 3.64209 7.678 3.64209H0ZM7.678 9.19508C11.957 9.19508 14.809 11.7441 14.809 16.7511C14.809 21.7281 11.956 24.3071 7.678 24.3071H6.378V9.19508H7.678ZM41.149 21.6421C41.179 21.1871 41.179 20.7621 41.179 20.3981C41.179 13.7221 37.811 9.74709 31.559 9.74709C25.793 9.74709 21.909 14.3291 21.909 20.0951C21.909 25.8611 25.884 30.3221 32.348 30.3221C33.9957 30.3831 35.631 30.0152 37.0938 29.2544C38.5566 28.4937 39.7968 27.3661 40.693 25.9821L36.566 22.7651C36.0973 23.4139 35.4812 23.9421 34.7683 24.3062C34.0555 24.6702 33.2664 24.8597 32.466 24.8591C30.16 24.8591 28.43 23.3721 28.278 21.6421H41.149ZM31.681 14.7531C32.0818 14.7336 32.4825 14.7937 32.86 14.9298C33.2376 15.0659 33.5844 15.2754 33.8806 15.5462C34.1767 15.817 34.4164 16.1437 34.5857 16.5075C34.755 16.8714 34.8506 17.2651 34.867 17.6661H28.495C28.537 16.859 28.8946 16.1009 29.4906 15.5551C30.0867 15.0094 30.8734 14.7199 31.681 14.7491V14.7531ZM52.316 24.7981C51.6749 24.8319 51.0338 24.7299 50.4347 24.499C49.8357 24.268 49.2921 23.9133 48.8395 23.4579C48.387 23.0025 48.0356 22.4567 47.8084 21.8562C47.5812 21.2557 47.4832 20.614 47.521 19.9731C47.4806 19.3541 47.5718 18.7336 47.7885 18.1523C48.0052 17.5711 48.3426 17.0424 48.7784 16.6009C49.2141 16.1595 49.7385 15.8153 50.3169 15.5911C50.8952 15.3669 51.5145 15.2677 52.134 15.3001C53.5696 15.3112 54.9554 15.827 56.049 16.7571L57.749 11.4771C56.0452 10.2793 54.0054 9.65255 51.923 9.68709C45.823 9.71709 41.272 13.9961 41.272 20.0351C41.272 26.0441 45.672 30.2921 51.893 30.2921C53.9496 30.3075 55.9616 29.6933 57.659 28.5321L55.99 23.4041C54.9636 24.2788 53.6653 24.7698 52.317 24.7931L52.316 24.7981ZM57.748 23.7061C57.748 27.9851 61.177 30.2911 65.031 30.2911C65.8386 30.3499 66.6497 30.2399 67.4125 29.9683C68.1754 29.6966 68.8733 29.2691 69.462 28.7131L69.826 29.8051H75.38V17.6621C75.38 13.1711 73.65 9.71109 66.913 9.71109C64.0698 9.70464 61.2899 10.5503 58.932 12.1391L61.238 16.3271C62.7605 15.5433 64.442 15.1178 66.154 15.0831C68.187 15.0831 69.154 16.0241 69.154 17.2071V17.9351C67.9545 17.4297 66.6623 17.1817 65.361 17.2071C60.723 17.2071 57.749 19.7861 57.749 23.7011L57.748 23.7061ZM63.969 23.4941C63.969 22.2191 65.061 21.4001 66.579 21.4001C68.066 21.4001 69.219 22.1591 69.219 23.4941C69.219 24.7941 68.096 25.4941 66.609 25.4941C65.183 25.4911 63.97 24.7931 63.97 23.4881L63.969 23.4941ZM90.8 28.7991C90.8 31.1991 88.494 31.7121 86.157 31.7121C84.2868 31.6722 82.4421 31.2701 80.725 30.5281L78.9 35.2931C81.1505 36.3875 83.6195 36.9581 86.122 36.9621C91.948 36.9621 96.986 34.6861 96.986 27.4621V10.1621H91.16V11.7101C90.4514 11.0415 89.617 10.5204 88.7052 10.1771C87.7935 9.83372 86.8226 9.67498 85.849 9.71008C80.235 9.71008 76.26 13.9581 76.26 19.9671C76.26 26.0671 79.841 30.2851 85.516 30.2851C86.473 30.3158 87.4267 30.1574 88.3224 29.819C89.2181 29.4806 90.0383 28.9689 90.736 28.3131V28.7991H90.8ZM91.012 19.9381C91.012 23.0381 89.222 24.7931 86.794 24.7931C84.245 24.7931 82.576 22.8201 82.576 19.9381C82.576 17.0251 84.276 15.2041 86.764 15.2041C89.43 15.1741 91.008 17.2981 91.008 19.9421L91.012 19.9381ZM148.579 29.7701H154.8V18.9061C154.8 14.9001 154.223 9.71109 148.063 9.71109C147.099 9.69091 146.145 9.91052 145.287 10.3502C144.429 10.7899 143.694 11.4359 143.147 12.2301V10.1971H137.047V29.7971H143.268V18.0871C143.241 17.7213 143.291 17.3538 143.416 17.0088C143.54 16.6638 143.737 16.3492 143.992 16.0854C144.247 15.8217 144.555 15.615 144.895 15.4788C145.236 15.3426 145.601 15.28 145.968 15.2951C146.328 15.2819 146.686 15.347 147.017 15.4862C147.349 15.6253 147.647 15.835 147.889 16.1006C148.132 16.3663 148.314 16.6817 148.422 17.0247C148.53 17.3677 148.563 17.7303 148.517 18.0871V29.7701H148.579Z" fill="white"/>
<path fill-rule="evenodd" clip-rule="evenodd" d="M112.01 8.70914C112.867 8.70987 113.721 8.80138 114.559 8.98213L113.527 11.7741C113.044 11.7126 112.557 11.6822 112.07 11.6831C110.851 11.6822 109.64 11.8875 108.489 12.2901L108.034 9.31613C109.32 8.91079 110.661 8.70606 112.01 8.70914ZM110.462 27.3091C110.04 26.5628 109.685 25.7808 109.4 24.9721L112.344 24.4561C112.513 24.9013 112.727 25.3284 112.981 25.7311C113.571 26.7961 114.353 27.7426 115.287 28.5231L112.981 30.4041C111.973 29.5214 111.121 28.4759 110.459 27.3111L110.462 27.3091ZM134.435 22.3631C134.346 22.986 134.224 23.6039 134.071 24.2141L132.796 23.6681C132.96 23.153 133.082 22.6252 133.16 22.0901L134.435 22.3631ZM132.675 27.4921C132.292 28.1594 131.834 28.7805 131.309 29.3431L130.095 28.0431C130.557 27.6004 130.974 27.1123 131.339 26.5861L132.675 27.4921ZM129.064 31.3461C128.742 31.5861 128.409 31.8091 128.064 32.0141C127.464 32.3625 126.835 32.657 126.183 32.8941L125.606 30.7091C126.403 30.4717 127.168 30.1357 127.882 29.7091C128.003 29.6481 128.094 29.5881 128.216 29.5271L129.064 31.3461ZM123.844 33.5311C122.512 33.7789 121.147 33.7995 119.808 33.5921L120.658 31.0431C121.76 31.2456 122.887 31.2662 123.996 31.1041L123.844 33.5311ZM118.351 33.3191L119.443 30.7701C118.184 30.4111 117.001 29.8248 115.953 29.0401L113.953 31.1951C115.266 32.1835 116.759 32.9054 118.349 33.3201L118.351 33.3191ZM104.27 31.9191C103.76 31.5461 103.283 31.1299 102.844 30.6751L103.936 29.8561C104.3 30.2611 104.696 30.6366 105.12 30.9791L104.27 31.9191ZM100.719 27.8831C100.356 27.1978 100.042 26.4881 99.7779 25.7591L101.538 25.3641C101.709 25.9846 101.922 26.593 102.175 27.1851L100.719 27.8831ZM99.1709 22.8151C99.1203 22.4226 99.0999 22.0268 99.1099 21.6311C99.1089 20.9291 99.1698 20.2284 99.2919 19.5371L101.477 20.1141C101.269 20.9269 101.168 21.7633 101.177 22.6021V22.9661L99.1709 22.8151ZM99.8989 17.2011C100.351 15.9302 101.007 14.7414 101.841 13.6811L103.662 15.6541C102.952 16.5394 102.369 17.5199 101.932 18.5671L99.8989 17.2011ZM102.843 12.5281L104.482 14.7741C105.421 13.8529 106.522 13.1123 107.729 12.5891L106.879 9.79713C105.361 10.4238 103.987 11.355 102.843 12.5331V12.5281ZM127.302 19.3561C126.884 20.0968 126.385 20.789 125.815 21.4201L123.903 19.1441C124.194 18.7686 124.457 18.373 124.692 17.9601C125.31 16.909 125.741 15.7586 125.967 14.5601L128.759 15.6221C128.472 16.9369 127.98 18.1986 127.302 19.3611V19.3561ZM111.102 1.05614C111.675 0.79072 112.275 0.58724 112.892 0.449142L113.044 1.81514C112.519 1.93461 112.002 2.08657 111.496 2.27014L111.102 1.05614ZM116.352 -0.00585938C117.127 -6.91968e-05 117.899 0.0813128 118.658 0.237137L118.142 1.96713C117.527 1.79464 116.897 1.68277 116.261 1.63313L116.352 -0.00585938ZM121.51 1.18314L122.602 1.72914C123.202 2.08862 123.78 2.48399 124.332 2.91313L122.724 4.52113C122.121 3.9448 121.449 3.44533 120.724 3.03413C120.633 2.97313 120.512 2.91314 120.424 2.85214L121.51 1.18314ZM126.032 4.61214C126.895 5.65148 127.591 6.81835 128.096 8.07114L125.486 8.64813C125.08 7.58877 124.517 6.59637 123.817 5.70413L126.032 4.61214ZM128.61 9.50014C129.018 11.0841 129.141 12.728 128.974 14.3551L126.121 13.6871C126.273 12.3868 126.181 11.0694 125.848 9.80313L128.61 9.50014Z" fill="#B8D344"/>
<path fill-rule="evenodd" clip-rule="evenodd" d="M105.877 17.5401C106.31 16.8091 106.808 16.1184 107.364 15.4761L109.277 17.7531C108.98 18.1408 108.706 18.5463 108.458 18.9671C107.849 20.0196 107.428 21.1701 107.214 22.3671L104.422 21.2751C104.709 19.9618 105.2 18.7015 105.877 17.5401ZM122.749 9.62008C123.164 10.3698 123.519 11.1512 123.811 11.9571L120.867 12.4731C120.679 12.0282 120.467 11.5941 120.23 11.1731C119.612 10.119 118.822 9.17547 117.893 8.38108L120.23 6.53008C121.22 7.42837 122.069 8.46994 122.75 9.62008H122.749ZM98.7771 14.5061C98.8398 13.8888 98.9617 13.279 99.1411 12.6851L100.416 13.2311C100.231 13.7403 100.109 14.2702 100.052 14.8091L98.7771 14.5061ZM100.507 9.40608C100.897 8.75109 101.344 8.1317 101.842 7.55508L103.056 8.85508C102.618 9.31152 102.212 9.79841 101.842 10.3121L100.507 9.40608ZM104.088 5.55207C104.421 5.32212 104.765 5.10951 105.12 4.91508C105.709 4.55745 106.328 4.25291 106.971 4.00507L107.578 6.19007C106.771 6.42725 105.997 6.76313 105.272 7.19007C105.181 7.25107 105.06 7.31108 104.972 7.37208L104.088 5.55207ZM109.338 3.36707C110.67 3.11934 112.035 3.09873 113.374 3.30609L112.524 5.85508C111.421 5.66309 110.293 5.65296 109.186 5.82508L109.338 3.36707ZM114.831 3.57908L113.739 6.12808C114.996 6.49339 116.177 7.07917 117.229 7.85807L119.229 5.70307C117.905 4.73285 116.414 4.01364 114.83 3.58108L114.831 3.57908ZM121.173 28.1901C120.318 28.1873 119.465 28.106 118.624 27.9471L119.656 25.1251C120.128 25.1955 120.605 25.2359 121.082 25.2461C122.31 25.2345 123.529 25.0297 124.693 24.6391L125.118 27.5831C123.844 27.9886 122.514 28.1941 121.177 28.1921L121.173 28.1901ZM128.911 4.97508C129.405 5.34679 129.873 5.75244 130.311 6.18908L129.219 7.03907C128.858 6.64191 128.473 6.26691 128.066 5.91609L128.911 4.97508ZM132.431 9.04109C132.803 9.71549 133.128 10.4152 133.402 11.1351L131.642 11.5301C131.46 10.909 131.237 10.3007 130.974 9.70908L132.431 9.04109ZM134.009 14.1091C134.039 14.4731 134.07 14.8981 134.07 15.2931C134.071 15.9851 134.01 16.6759 133.888 17.3571L131.703 16.7801C131.898 15.965 131.999 15.1302 132.003 14.2921C132.008 14.17 131.998 14.0477 131.973 13.9281L134.009 14.1091ZM133.277 19.7251C132.825 20.996 132.169 22.1849 131.335 23.2451L129.514 21.2451C130.239 20.3811 130.823 19.4082 131.244 18.3621L133.277 19.7251ZM130.303 24.3681L128.664 22.1531C127.729 23.0717 126.627 23.8032 125.417 24.3081L126.297 27.1301C127.803 26.4828 129.166 25.5441 130.307 24.3681H130.303ZM122.11 35.8681C121.526 36.1067 120.929 36.3094 120.32 36.4751L120.138 35.0751C120.671 34.9618 121.198 34.8199 121.716 34.6501L122.11 35.8681ZM116.83 36.9001C116.055 36.8959 115.283 36.8145 114.524 36.6571L115.04 34.9271C115.644 35.1065 116.264 35.2284 116.891 35.2911L116.83 36.9001ZM111.641 35.7171C111.277 35.5351 110.941 35.3531 110.579 35.1711C109.979 34.8116 109.401 34.4162 108.849 33.9871L110.427 32.3791C111.034 32.9508 111.705 33.4499 112.427 33.8661C112.548 33.9271 112.639 33.9871 112.761 34.0481L111.641 35.7171ZM107.15 32.2881C106.272 31.2543 105.565 30.0865 105.056 28.8291L107.696 28.2521C108.078 29.3226 108.643 30.3188 109.365 31.1961L107.15 32.2881ZM104.601 27.4021C104.177 25.8208 104.053 24.1739 104.237 22.5471L107.09 23.2151C106.948 24.5274 107.05 25.8547 107.39 27.1301L104.601 27.4021Z" fill="#34A853"/>
<path fill-rule="evenodd" clip-rule="evenodd" d="M105.877 17.5401C106.31 16.8091 106.808 16.1184 107.364 15.4761L109.277 17.7531C108.98 18.1408 108.706 18.5463 108.458 18.9671C107.849 20.0196 107.428 21.1701 107.214 22.3671L104.422 21.2751C104.709 19.9618 105.2 18.7015 105.877 17.5401ZM122.749 9.62008C123.164 10.3698 123.519 11.1512 123.811 11.9571L120.867 12.4731C120.679 12.0282 120.466 11.5941 120.23 11.1731C119.611 10.119 118.822 9.17547 117.893 8.38108L120.23 6.53008C121.22 7.42837 122.069 8.46994 122.75 9.62008H122.749ZM98.7769 14.5061C98.8395 13.8888 98.9614 13.279 99.1409 12.6851L100.416 13.2311C100.231 13.7403 100.108 14.2702 100.052 14.8091L98.7769 14.5061ZM100.507 9.40608C100.897 8.75109 101.343 8.1317 101.842 7.55508L103.056 8.85508C102.617 9.31152 102.212 9.79841 101.842 10.3121L100.507 9.40608ZM104.088 5.55207C104.421 5.32212 104.765 5.10951 105.12 4.91508C105.709 4.55745 106.328 4.25291 106.971 4.00507L107.578 6.19007C106.771 6.42725 105.996 6.76313 105.272 7.19007C105.181 7.25107 105.06 7.31108 104.972 7.37208L104.088 5.55207ZM109.338 3.36707C110.67 3.11934 112.035 3.09873 113.374 3.30609L112.524 5.85508C111.42 5.66309 110.293 5.65296 109.186 5.82508L109.338 3.36707ZM114.831 3.57908L113.739 6.12808C114.996 6.49339 116.177 7.07917 117.229 7.85807L119.229 5.70307C117.905 4.73285 116.414 4.01364 114.83 3.58108L114.831 3.57908ZM121.173 28.1901C120.318 28.1873 119.464 28.106 118.624 27.9471L119.656 25.1251C120.128 25.1955 120.604 25.2359 121.082 25.2461C122.31 25.2345 123.528 25.0297 124.693 24.6391L125.118 27.5831C123.844 27.9886 122.514 28.1941 121.177 28.1921L121.173 28.1901ZM128.911 4.97508C129.405 5.34679 129.873 5.75244 130.311 6.18908L129.219 7.03907C128.857 6.64191 128.472 6.26691 128.066 5.91609L128.911 4.97508ZM132.431 9.04109C132.803 9.71549 133.128 10.4152 133.402 11.1351L131.642 11.5301C131.46 10.909 131.236 10.3007 130.974 9.70908L132.431 9.04109ZM134.009 14.1091C134.039 14.4731 134.07 14.8981 134.07 15.2931C134.071 15.9851 134.01 16.6759 133.888 17.3571L131.703 16.7801C131.898 15.965 131.998 15.1302 132.003 14.2921C132.008 14.17 131.998 14.0477 131.973 13.9281L134.009 14.1091ZM133.277 19.7251C132.825 20.996 132.169 22.1849 131.335 23.2451L129.514 21.2451C130.239 20.3811 130.823 19.4082 131.244 18.3621L133.277 19.7251ZM130.303 24.3681L128.664 22.1531C127.729 23.0717 126.627 23.8032 125.417 24.3081L126.297 27.1301C127.803 26.4828 129.165 25.5441 130.307 24.3681H130.303ZM122.11 35.8681C121.526 36.1067 120.928 36.3094 120.32 36.4751L120.138 35.0751C120.671 34.9618 121.198 34.8199 121.716 34.6501L122.11 35.8681ZM116.83 36.9001C116.055 36.8959 115.283 36.8145 114.524 36.6571L115.04 34.9271C115.644 35.1065 116.264 35.2284 116.891 35.2911L116.83 36.9001ZM111.641 35.7171C111.277 35.5351 110.941 35.3531 110.579 35.1711C109.979 34.8116 109.401 34.4162 108.849 33.9871L110.427 32.3791C111.033 32.9508 111.705 33.4499 112.427 33.8661C112.548 33.9271 112.639 33.9871 112.761 34.0481L111.641 35.7171ZM107.15 32.2881C106.272 31.2543 105.565 30.0865 105.056 28.8291L107.696 28.2521C108.078 29.3226 108.642 30.3188 109.365 31.1961L107.15 32.2881ZM104.601 27.4021C104.177 25.8208 104.053 24.1739 104.237 22.5471L107.09 23.2151C106.948 24.5274 107.049 25.8547 107.39 27.1301L104.601 27.4021Z" fill="#34A853"/>
</g>
<defs>
<clipPath id="clip0">
<rect width="154.796" height="36.962" fill="white"/>
</clipPath>
</defs>
</svg>
