<svg width="9" height="8" viewBox="0 0 9 8" fill="none" xmlns="http://www.w3.org/2000/svg">
<path d="M4.43164 0.0527344C5.07031 0.0527344 5.70605 0.225586 6.33887 0.571289C6.97754 0.911133 7.46387 1.40039 7.79785 2.03906C8.1377 2.67188 8.30762 3.29883 8.30762 3.91992C8.30762 4.99219 7.92969 5.90625 7.17383 6.66211C6.41797 7.41797 5.50391 7.7959 4.43164 7.7959C3.36523 7.7959 2.4541 7.41797 1.69824 6.66211C0.942383 5.90625 0.564453 4.99219 0.564453 3.91992C0.564453 3.28711 0.725586 2.66016 1.04785 2.03906C1.37598 1.41211 1.85352 0.925781 2.48047 0.580078C3.11328 0.228516 3.76367 0.0527344 4.43164 0.0527344Z" fill="#2C3134"/>
</svg>
