<svg width="89" height="24" viewBox="0 0 89 24" fill="none" xmlns="http://www.w3.org/2000/svg">
<g clip-path="url(#clip0)">
<path d="M17.1494 10.2723H9.69194C9.59952 10.2723 9.5109 10.3091 9.44555 10.3744C9.3802 10.4398 9.34347 10.5284 9.34342 10.6208V14.267C9.34346 14.3594 9.38018 14.4481 9.44552 14.5135C9.51085 14.579 9.59947 14.6158 9.69194 14.616H12.6011V19.1459C12.6011 19.1459 11.9479 19.3687 10.1419 19.3687C8.01124 19.3687 5.03478 18.59 5.03478 12.045C5.03478 5.4987 8.13413 4.6372 11.0439 4.6372C13.5626 4.6372 14.6477 5.08089 15.3381 5.29432C15.5551 5.36085 15.7557 5.14501 15.7557 4.95227L16.5877 1.42956C16.5877 1.33957 16.5572 1.23091 16.4544 1.15718C16.1741 0.95723 14.4635 0 10.1419 0C5.1634 0 0.0566406 2.11828 0.0566406 12.3002C0.0566406 22.4829 5.90349 24 10.8304 24C14.9099 24 17.3847 22.2567 17.3847 22.2567C17.4867 22.2001 17.4978 22.0576 17.4978 21.9922V10.6206C17.4978 10.4284 17.3418 10.2723 17.1494 10.2723ZM55.5825 1.22C55.5829 1.17424 55.5743 1.12885 55.5571 1.08645C55.5399 1.04404 55.5144 1.00545 55.4823 0.972893C55.4501 0.940336 55.4118 0.914455 55.3696 0.896735C55.3274 0.879016 55.2822 0.869807 55.2364 0.869638H51.0372C50.9913 0.869807 50.946 0.879005 50.9037 0.896704C50.8614 0.914404 50.823 0.940257 50.7907 0.972792C50.7584 1.00533 50.7329 1.04391 50.7155 1.08632C50.6981 1.12874 50.6892 1.17416 50.6894 1.22L50.6905 9.33482H44.1453V1.22C44.1457 1.17423 44.1369 1.12883 44.1197 1.08642C44.1025 1.04401 44.077 1.00542 44.0448 0.972871C44.0126 0.940319 43.9743 0.914442 43.9321 0.896727C43.8899 0.879012 43.8446 0.869807 43.7988 0.869638H39.6C39.5075 0.870127 39.419 0.907307 39.354 0.973009C39.2889 1.03871 39.2527 1.12755 39.2531 1.22V23.1926C39.2531 23.3863 39.4089 23.5439 39.6 23.5439H43.7988C43.9908 23.5439 44.1453 23.3861 44.1453 23.1926V13.7941H50.6905L50.679 23.1926C50.679 23.3863 50.835 23.5439 51.027 23.5439H55.236C55.4284 23.5439 55.5822 23.3861 55.5825 23.1926V1.22ZM25.0732 4.10352C25.0732 2.59136 23.8609 1.3695 22.3654 1.3695C20.8714 1.3695 19.6582 2.59136 19.6582 4.10352C19.6582 5.61383 20.8714 6.83882 22.3654 6.83882C23.8609 6.83882 25.0732 5.61383 25.0732 4.10352ZM24.7729 18.5577V8.41511C24.7731 8.32264 24.7367 8.23384 24.6716 8.1682C24.6065 8.10255 24.518 8.06541 24.4255 8.06493H20.2397C20.0477 8.06493 19.8759 8.26302 19.8759 8.45576V22.9868C19.8759 23.414 20.142 23.5408 20.4864 23.5408H24.2577C24.6714 23.5408 24.7729 23.3375 24.7729 22.9801V18.5577ZM71.5405 8.098H67.3736C67.1825 8.098 67.0269 8.25545 67.0269 8.4493V19.2231C67.0269 19.2231 65.9683 19.9978 64.4659 19.9978C62.9635 19.9978 62.5649 19.3161 62.5649 17.8449V8.4493C62.5649 8.25545 62.4095 8.098 62.2184 8.098H57.9893C57.7986 8.098 57.642 8.25545 57.642 8.4493V18.5562C57.642 22.9258 60.0774 23.9948 63.4279 23.9948C66.1763 23.9948 68.3922 22.4766 68.3922 22.4766C68.3922 22.4766 68.4977 23.2765 68.5454 23.3715C68.5933 23.4661 68.7176 23.5617 68.852 23.5617L71.5425 23.5498C71.7333 23.5498 71.8898 23.392 71.8898 23.1991L71.8883 8.44948C71.8883 8.25545 71.7325 8.098 71.5405 8.098ZM81.2856 19.9844C79.8403 19.9405 78.86 19.2845 78.86 19.2845V12.3264C78.86 12.3264 79.827 11.7336 81.0136 11.6276C82.5141 11.4932 83.9599 11.9465 83.9599 15.5258C83.9601 19.3003 83.3076 20.0452 81.2856 19.9844ZM82.9291 7.60461C80.5625 7.60461 78.9528 8.66051 78.9528 8.66051V1.22019C78.9528 1.02616 78.7977 0.869638 78.6063 0.869638H74.3954C74.3496 0.869856 74.3043 0.879097 74.262 0.896834C74.2198 0.914571 74.1815 0.940457 74.1492 0.973012C74.117 1.00557 74.0915 1.04415 74.0742 1.08656C74.0569 1.12897 74.0481 1.17438 74.0483 1.22019V23.1926C74.0483 23.3863 74.2039 23.5439 74.3959 23.5439H77.3177C77.4491 23.5439 77.5487 23.4761 77.6222 23.3575C77.6949 23.2394 77.7996 22.3444 77.7996 22.3444C77.7996 22.3444 79.5215 23.9762 82.7811 23.9762C86.6078 23.9762 88.8024 22.0351 88.8024 15.2624C88.8024 8.48958 85.2974 7.60461 82.9291 7.60461ZM36.8412 8.06308H33.6914L33.6866 3.90172C33.6866 3.74428 33.6054 3.66556 33.4234 3.66556H29.1311C28.9642 3.66556 28.8746 3.7391 28.8746 3.89932V8.19964C28.8746 8.19964 26.7236 8.71872 26.5781 8.76085C26.5056 8.78188 26.4418 8.8259 26.3965 8.88629C26.3511 8.94668 26.3266 9.02017 26.3266 9.0957V11.7979C26.3266 11.9923 26.4819 12.1487 26.6739 12.1487H28.8746V18.6493C28.8746 23.478 32.2615 23.9523 34.547 23.9523C35.5912 23.9523 36.8404 23.6171 37.0467 23.5406C37.1714 23.4948 37.2438 23.3656 37.2438 23.2255L37.2474 20.253C37.2474 20.0589 37.0836 19.9024 36.8992 19.9024C36.7157 19.9024 36.2461 19.9771 35.7627 19.9771C34.2156 19.9771 33.6914 19.2577 33.6914 18.3265L33.6912 12.1485H36.8412C37.0332 12.1485 37.1886 11.992 37.1886 11.7977V8.41289C37.1888 8.36709 37.18 8.3217 37.1626 8.27932C37.1453 8.23694 37.1197 8.19839 37.0875 8.1659C37.0552 8.1334 37.0168 8.10759 36.9746 8.08995C36.9323 8.07231 36.887 8.06318 36.8412 8.06308Z" fill="#121110"/>
</g>
<defs>
<clipPath id="clip0">
<rect width="88.7574" height="24" fill="white" transform="translate(0.0507812)"/>
</clipPath>
</defs>
</svg>
