<svg width="20" height="20" viewBox="0 0 20 20" fill="none" xmlns="http://www.w3.org/2000/svg">
<path opacity="0.4" d="M18.3332 13.2837C18.3332 15.6087 16.4665 17.492 14.1415 17.5003H14.1332H5.87484C3.55817 17.5003 1.6665 15.6253 1.6665 13.3003V13.292C1.6665 13.292 1.6715 9.60366 1.67817 7.74866C1.679 7.40033 2.079 7.20533 2.3515 7.42199C4.3315 8.99283 7.87234 11.857 7.9165 11.8945C8.50817 12.3687 9.25817 12.6362 10.0248 12.6362C10.7915 12.6362 11.5415 12.3687 12.1332 11.8853C12.1773 11.8562 15.639 9.07783 17.649 7.48116C17.9223 7.26366 18.324 7.45866 18.3248 7.80616C18.3332 9.64699 18.3332 13.2837 18.3332 13.2837Z" fill="white"/>
<path d="M17.8967 4.72784C17.1751 3.36785 15.7551 2.49951 14.1917 2.49951H5.87507C4.31173 2.49951 2.89173 3.36785 2.17007 4.72784C2.0084 5.03201 2.08507 5.41118 2.35423 5.62618L8.54173 10.5753C8.97507 10.9253 9.50007 11.0995 10.0251 11.0995C10.0284 11.0995 10.0309 11.0995 10.0334 11.0995C10.0359 11.0995 10.0392 11.0995 10.0417 11.0995C10.5667 11.0995 11.0917 10.9253 11.5251 10.5753L17.7126 5.62618C17.9817 5.41118 18.0584 5.03201 17.8967 4.72784Z" fill="white"/>
</svg>
