<svg width="143" height="25" viewBox="0 0 143 25" fill="none" xmlns="http://www.w3.org/2000/svg">
<path d="M62.1195 16.7037V11.4967C62.1195 9.53196 60.8663 8.20939 58.8495 8.19203C58.2751 8.1549 57.7013 8.2725 57.1878 8.5326C56.6743 8.7927 56.24 9.18576 55.9301 9.67082C55.6477 9.20015 55.2436 8.81437 54.7604 8.55412C54.2772 8.29386 53.7327 8.16878 53.1843 8.19203C52.7068 8.16897 52.2315 8.27082 51.8054 8.48754C51.3792 8.70426 51.017 9.02835 50.7544 9.42782V8.38643H48.9458V16.7037H50.7717V12.0973C50.7717 10.6532 51.5701 9.88951 52.8059 9.88951C54.0417 9.88951 54.6145 10.6706 54.6145 12.0799V16.7037H56.43V12.0973C56.43 10.6532 57.2631 9.88951 58.4642 9.88951C59.6653 9.88951 60.2901 10.6706 60.2901 12.0799V16.7037H62.1195ZM89.1368 8.39337H86.1827V5.87319H84.3568V8.39337H82.6697V10.0457H84.3568V13.8329C84.3568 15.763 85.1031 16.912 87.2415 16.912C88.0401 16.9146 88.8233 16.692 89.5013 16.2698L88.9806 14.7216C88.4954 15.0106 87.9448 15.1718 87.3803 15.1902C86.4778 15.1902 86.1792 14.6348 86.1792 13.8017V10.0457H89.1333L89.1368 8.39337ZM104.56 8.18509C104.119 8.17224 103.683 8.27865 103.297 8.4931C102.912 8.70755 102.591 9.02209 102.369 9.40352V8.39337H100.578V16.7037H102.387V12.0452C102.387 10.6567 102.977 9.90687 104.161 9.90687C104.548 9.90126 104.932 9.97204 105.292 10.1151L105.848 8.41073C105.434 8.26289 104.999 8.18659 104.56 8.18509ZM81.243 9.05292C80.2191 8.44458 79.0418 8.14335 77.8515 8.18509C75.7479 8.18509 74.3802 9.19524 74.3802 10.8441C74.3802 12.2014 75.3869 13.0345 77.2475 13.2949L78.098 13.4164C79.0873 13.5552 79.5594 13.8156 79.5594 14.2842C79.5594 14.9264 78.8999 15.2944 77.6641 15.2944C76.6671 15.326 75.6886 15.0203 74.887 14.4265L74.0643 15.8324C75.1175 16.5688 76.3795 16.9473 77.6641 16.912C80.0628 16.912 81.4548 15.7803 81.4548 14.2009C81.4548 12.7395 80.3578 11.9758 78.5527 11.7154L77.7023 11.5939C76.9212 11.4898 76.2929 11.3336 76.2929 10.7782C76.2929 10.1707 76.883 9.8062 77.8758 9.8062C78.7854 9.81964 79.6767 10.0645 80.4654 10.5178L81.243 9.05292ZM129.675 8.18509C129.234 8.17224 128.798 8.27865 128.412 8.4931C128.027 8.70755 127.706 9.02209 127.485 9.40352V8.39337H125.693V16.7037H127.502V12.0452C127.502 10.6567 128.092 9.90687 129.276 9.90687C129.663 9.90126 130.048 9.97204 130.407 10.1151L130.963 8.41073C130.549 8.26289 130.114 8.18659 129.675 8.18509ZM106.386 12.5485C106.386 15.0687 108.142 16.912 110.819 16.912C111.904 16.9657 112.97 16.6116 113.808 15.9192L112.94 14.4578C112.314 14.9339 111.552 15.1956 110.767 15.2041C109.323 15.2041 108.264 14.1419 108.264 12.5451C108.264 10.9483 109.326 9.9034 110.767 9.88604C111.552 9.89453 112.314 10.1563 112.94 10.6324L113.808 9.17095C112.97 8.47858 111.904 8.12445 110.819 8.17815C108.142 8.17815 106.386 10.0214 106.386 12.5416V12.5485ZM123.319 12.5485V8.38295H121.51V9.39311C121.202 8.99521 120.803 8.67696 120.346 8.46498C119.89 8.25299 119.389 8.15345 118.886 8.17468C116.557 8.17468 114.72 10.0006 114.72 12.5381C114.72 15.0757 116.546 16.9016 118.886 16.9016C119.389 16.9228 119.89 16.8233 120.346 16.6113C120.803 16.3993 121.202 16.081 121.51 15.6831V16.6898H123.319V12.5485ZM116.592 12.5485C116.592 11.0871 117.546 9.88951 119.112 9.88951C120.608 9.88951 121.615 11.0385 121.615 12.5485C121.615 14.0586 120.608 15.2076 119.112 15.2076C117.546 15.2076 116.592 14.0065 116.592 12.5485ZM94.7708 8.18509C92.3408 8.18509 90.6329 9.95894 90.6329 12.5485C90.6329 15.1902 92.4068 16.912 94.8923 16.912C96.1333 16.9555 97.3468 16.5403 98.3011 15.7456L97.4159 14.4057C96.7255 14.9581 95.8701 15.2636 94.986 15.2735C93.8196 15.2735 92.7609 14.7355 92.5005 13.2393H98.6725C98.6899 13.0137 98.7072 12.7881 98.7072 12.5451C98.7072 9.95546 97.0896 8.18162 94.7603 8.18162L94.7708 8.18509ZM94.736 9.80273C95.9024 9.80273 96.6487 10.5317 96.8397 11.8196H92.5318C92.7227 10.6185 93.4516 9.80273 94.7395 9.80273H94.736ZM140.089 12.5485V5.05396H138.28V9.40005C137.972 9.00216 137.573 8.6839 137.116 8.47192C136.66 8.25994 136.159 8.16039 135.656 8.18162C133.327 8.18162 131.49 10.0075 131.49 12.5451C131.49 15.0826 133.316 16.9085 135.656 16.9085C136.159 16.9298 136.66 16.8302 137.116 16.6182C137.573 16.4062 137.972 16.088 138.28 15.6901V16.6968H140.089V12.5485ZM142.203 15.9366C142.274 15.9363 142.345 15.9504 142.411 15.9782C142.475 16.0053 142.532 16.0442 142.581 16.0928C142.63 16.1405 142.669 16.197 142.696 16.2594C142.724 16.3241 142.738 16.3938 142.738 16.4642C142.738 16.5346 142.724 16.6043 142.696 16.669C142.669 16.7313 142.63 16.7879 142.581 16.8356C142.532 16.884 142.475 16.9229 142.411 16.9502C142.345 16.9782 142.274 16.9924 142.203 16.9918C142.097 16.9932 141.993 16.9632 141.904 16.9058C141.815 16.8484 141.745 16.766 141.703 16.669C141.675 16.6043 141.661 16.5346 141.661 16.4642C141.661 16.3938 141.675 16.3241 141.703 16.2594C141.757 16.1319 141.86 16.0309 141.988 15.9782C142.058 15.949 142.134 15.9348 142.21 15.9366H142.203ZM142.203 16.8738C142.258 16.8747 142.312 16.864 142.363 16.8426C142.41 16.8219 142.454 16.7924 142.491 16.7558C142.568 16.6784 142.612 16.5735 142.612 16.4642C142.612 16.3549 142.568 16.25 142.491 16.1726C142.454 16.1358 142.411 16.1063 142.363 16.0858C142.312 16.0646 142.258 16.0539 142.203 16.0546C142.147 16.0538 142.091 16.0645 142.04 16.0858C141.978 16.1123 141.923 16.1534 141.881 16.2057C141.839 16.258 141.81 16.3199 141.797 16.3859C141.784 16.452 141.787 16.5202 141.806 16.5847C141.826 16.6491 141.861 16.7079 141.908 16.7558C141.946 16.7929 141.991 16.8224 142.04 16.8426C142.094 16.865 142.152 16.8756 142.21 16.8738H142.203ZM142.234 16.2143C142.286 16.2106 142.338 16.2254 142.38 16.2559C142.397 16.2696 142.411 16.2871 142.42 16.307C142.429 16.3269 142.433 16.3486 142.432 16.3705C142.433 16.3892 142.429 16.4079 142.422 16.4253C142.415 16.4427 142.404 16.4583 142.39 16.4711C142.359 16.4995 142.318 16.5165 142.276 16.5197L142.436 16.7037H142.311L142.161 16.5197H142.113V16.7037H142.009V16.2177L142.234 16.2143ZM142.113 16.3045V16.4364H142.234C142.256 16.4427 142.279 16.4427 142.3 16.4364C142.308 16.4311 142.314 16.4238 142.319 16.4153C142.323 16.4068 142.325 16.3973 142.324 16.3878C142.325 16.3783 142.323 16.3689 142.319 16.3604C142.314 16.3518 142.308 16.3446 142.3 16.3392C142.279 16.333 142.256 16.333 142.234 16.3392L142.113 16.3045ZM133.368 12.5485C133.368 11.0871 134.323 9.88951 135.889 9.88951C137.385 9.88951 138.391 11.0385 138.391 12.5485C138.391 14.0586 137.385 15.2076 135.889 15.2076C134.323 15.2076 133.368 14.0065 133.368 12.5485ZM72.3078 12.5485V8.38295H70.4993V9.39311C70.1908 8.99859 69.7929 8.68323 69.3383 8.47316C68.8838 8.26308 68.3857 8.16433 67.8853 8.18509C65.5561 8.18509 63.7198 10.011 63.7198 12.5485C63.7198 15.0861 65.5457 16.912 67.8853 16.912C68.3883 16.9332 68.889 16.8337 69.3456 16.6217C69.8022 16.4097 70.2013 16.0915 70.5097 15.6936V16.7002H72.3182L72.3078 12.5485ZM65.5804 12.5485C65.5804 11.0871 66.535 9.88951 68.1006 9.88951C69.5967 9.88951 70.6034 11.0385 70.6034 12.5485C70.6034 14.0586 69.5967 15.2076 68.1006 15.2076C66.535 15.2076 65.5804 14.01 65.5804 12.5485Z" fill="#5D646C"/>
<path d="M25.8687 2.66919H14.9341V22.3204H25.8687V2.66919Z" fill="#5D646C" fill-opacity="0.41"/>
<path d="M15.6282 12.5015C15.6267 10.6092 16.0556 8.74146 16.8826 7.03949C17.7095 5.33751 18.9127 3.84593 20.4012 2.67763C18.5577 1.22878 16.3437 0.327818 14.0123 0.0777299C11.6809 -0.172358 9.32613 0.238514 7.2172 1.26339C5.10827 2.28826 3.33021 3.88578 2.08625 5.87337C0.842294 7.86097 0.182617 10.1584 0.182617 12.5032C0.182617 14.848 0.842294 17.1455 2.08625 19.1331C3.33021 21.1206 5.10827 22.7182 7.2172 23.743C9.32613 24.7679 11.6809 25.1788 14.0123 24.9287C16.3437 24.6786 18.5577 23.7777 20.4012 22.3288C18.9123 21.1601 17.7088 19.668 16.8818 17.9654C16.0549 16.2628 15.6262 14.3943 15.6282 12.5015Z" fill="#5D646C"/>
<path d="M40.6218 12.5C40.6218 14.8449 39.9619 17.1425 38.7178 19.1302C37.4736 21.1178 35.6953 22.7153 33.5861 23.7401C31.4769 24.7648 29.1219 25.1754 26.7904 24.925C24.4588 24.6745 22.2448 23.7731 20.4014 22.3238C21.8893 21.1545 23.0922 19.6625 23.9193 17.9604C24.7465 16.2583 25.1763 14.3906 25.1763 12.4982C25.1763 10.6058 24.7465 8.73811 23.9193 7.03603C23.0922 5.33396 21.8893 3.84197 20.4014 2.67264C22.245 1.22315 24.4594 0.32171 26.7912 0.0713929C29.1231 -0.178924 31.4783 0.231982 33.5876 1.25713C35.6969 2.28228 37.4752 3.88029 38.7191 5.86846C39.9631 7.85663 40.6224 10.1547 40.6218 12.5Z" fill="#5D646C"/>
<path d="M39.4207 20.2375V19.8349H39.5839V19.755H39.1777V19.8383H39.3409V20.241L39.4207 20.2375ZM40.2226 20.2375V19.7516H40.115L39.9692 20.0987L39.8234 19.7516H39.695V20.2375H39.7679V19.8731L39.9032 20.1889H39.997L40.1324 19.8731V20.241L40.2226 20.2375Z" fill="#5D646C"/>
</svg>
