<svg width="84" height="25" viewBox="0 0 84 25" fill="none" xmlns="http://www.w3.org/2000/svg">
<path fill-rule="evenodd" clip-rule="evenodd" d="M19.3253 6.26066C19.3253 2.8195 16.5275 0.0212402 13.0864 0.0212402C9.64519 0.0212402 6.81441 2.81899 6.81441 6.26066H19.3253ZM19.3253 18.7075C19.3253 22.1486 16.5275 24.9789 13.0864 24.9789C9.64519 24.9789 6.81441 22.1491 6.81441 18.7075H19.3253ZM12.4109 12.4676C9.25895 12.7893 6.78239 15.523 6.78239 18.739C3.34123 18.739 0.542969 15.9407 0.542969 12.5001C0.542969 9.0269 3.34123 6.22864 6.78239 6.22864C6.78239 9.47668 9.25895 12.1784 12.4109 12.4676ZM13.7938 12.4676C16.9458 12.7893 19.4223 15.523 19.4223 18.739C22.8635 18.739 25.6618 15.9407 25.6618 12.5001C25.6618 9.0269 22.864 6.22864 19.3903 6.22864C19.3898 9.47668 16.9458 12.1784 13.7938 12.4676Z" fill="#5D646C"/>
<path fill-rule="evenodd" clip-rule="evenodd" d="M19.3253 6.2606C19.3253 2.81944 16.5275 0.0211792 13.0864 0.0211792C9.64519 0.0211792 6.81441 2.81893 6.81441 6.2606H19.3253ZM19.3253 18.7074C19.3253 22.1486 16.5275 24.9788 13.0864 24.9788C9.64519 24.9788 6.81441 22.1491 6.81441 18.7074H19.3253ZM12.4109 12.4675C9.25895 12.7892 6.78239 15.5229 6.78239 18.7389C3.34123 18.7389 0.542969 15.9407 0.542969 12.5C0.542969 9.02684 3.34123 6.22858 6.78239 6.22858C6.78239 9.47661 9.25895 12.1783 12.4109 12.4675ZM13.7938 12.4675C16.9458 12.7892 19.4223 15.5229 19.4223 18.7389C22.8635 18.7389 25.6618 15.9407 25.6618 12.5C25.6618 9.02684 22.864 6.22858 19.3903 6.22858C19.3898 9.47661 16.9458 12.1783 13.7938 12.4675Z" fill="#5D646C"/>
<path fill-rule="evenodd" clip-rule="evenodd" d="M55.8939 8.38343H57.2768C57.7591 8.38343 58.7888 8.35141 58.7888 9.60519C58.7888 10.8275 58.0808 11.1812 57.2768 11.1812H55.8939V11.5669L60.0751 18.064H63.5808L59.914 12.6286C61.8437 11.696 61.9397 10.2806 61.9397 9.25147C61.9397 6.29262 59.5277 5.90637 58.5946 5.90637H52.9346V18.0635H55.8934V8.38343H55.8939Z" fill="#5D646C"/>
<path fill-rule="evenodd" clip-rule="evenodd" d="M72.1675 14.7189C71.2344 15.6189 70.2698 15.7165 68.7579 15.7165C66.8927 15.7165 65.3808 14.14 65.3808 11.9532C65.3808 9.76579 66.8927 7.96466 68.7579 7.96466C70.1407 7.96466 71.2665 8.28636 72.1675 9.09036V6.16404C71.2029 5.61719 70.0127 5.35953 68.7579 5.35953C65.1556 5.35953 62.2613 7.54639 62.2613 11.9527C62.2613 16.1658 65.1556 18.4497 68.7579 18.4497C70.0127 18.4497 71.3635 18.2561 72.199 17.8383L72.1675 14.7189ZM72.939 18.064V5.90688H75.9309V11.1812L79.8539 5.90688H83.3921L79.5967 11.5034L84.099 18.064H80.3687L75.9309 11.6315V18.064H72.939ZM31.0327 18.064H33.895V10.088L37.5293 18.4172L41.2281 10.0235V18.064H44.187V5.90688H39.8127L37.5293 11.2777L35.2138 5.90688H31.0327V18.064ZM44.991 5.90688H52.2916V8.38343H47.9818V10.6023H51.9053V13.1109H47.9818V15.5559H52.2916V18.064H44.991V5.90688Z" fill="#5D646C"/>
<path fill-rule="evenodd" clip-rule="evenodd" d="M72.1675 14.7189C71.2344 15.6189 70.2698 15.7165 68.7579 15.7165C66.8927 15.7165 65.3808 14.14 65.3808 11.9532C65.3808 9.76579 66.8927 7.96466 68.7579 7.96466C70.1407 7.96466 71.2665 8.28636 72.1675 9.09036V6.16404C71.2029 5.61719 70.0127 5.35953 68.7579 5.35953C65.1556 5.35953 62.2613 7.54639 62.2613 11.9527C62.2613 16.1658 65.1556 18.4497 68.7579 18.4497C70.0127 18.4497 71.3635 18.2561 72.199 17.8383L72.1675 14.7189ZM72.939 18.064V5.90688H75.9309V11.1812L79.8539 5.90688H83.3921L79.5967 11.5034L84.099 18.064H80.3687L75.9309 11.6315V18.064H72.939ZM31.0327 18.064H33.895V10.088L37.5293 18.4172L41.2281 10.0235V18.064H44.187V5.90688H39.8127L37.5293 11.2777L35.2138 5.90688H31.0327V18.064ZM44.991 5.90688H52.2916V8.38343H47.9818V10.6023H51.9053V13.1109H47.9818V15.5559H52.2916V18.064H44.991V5.90688Z" fill="#5D646C"/>
</svg>
