<svg width="113" height="24" viewBox="0 0 113 24" fill="none" xmlns="http://www.w3.org/2000/svg">
<g clip-path="url(#clip0)">
<path d="M112.918 10.8576V8.88157H110.464V5.80961L110.381 5.83505L108.076 6.54024L108.031 6.55404V8.88168H104.393V7.58498C104.393 6.9812 104.528 6.51915 104.794 6.21101C105.058 5.90657 105.436 5.75179 105.918 5.75179C106.265 5.75179 106.624 5.83342 106.985 5.99439L107.075 6.03482V3.95381L107.033 3.93816C106.696 3.81708 106.238 3.7561 105.67 3.7561C104.954 3.7561 104.304 3.91186 103.737 4.22054C103.169 4.52966 102.723 4.97095 102.41 5.53202C102.098 6.09243 101.94 6.73969 101.94 7.45597V8.88157H100.232V10.8576H101.94V19.1822H104.393V10.8576H108.031V16.1477C108.031 18.3264 109.059 19.4305 111.085 19.4305C111.418 19.4305 111.769 19.3915 112.127 19.3151C112.491 19.2366 112.739 19.1583 112.885 19.0746L112.918 19.0554V17.0612L112.818 17.1271C112.685 17.2158 112.519 17.2883 112.325 17.3422C112.129 17.3971 111.966 17.4246 111.84 17.4246C111.365 17.4246 111.014 17.2967 110.796 17.0442C110.576 16.7894 110.464 16.3439 110.464 15.7207V10.8576H112.918ZM94.754 17.4249C93.8638 17.4249 93.1618 17.1297 92.6672 16.5482C92.1695 15.9638 91.9173 15.1306 91.9173 14.0719C91.9173 12.9797 92.1695 12.1248 92.6674 11.5301C93.1624 10.9392 93.8576 10.6393 94.734 10.6393C95.5846 10.6393 96.2616 10.9257 96.7466 11.491C97.2339 12.0593 97.4813 12.9073 97.4813 14.0122C97.4813 15.1308 97.2487 15.99 96.7901 16.5648C96.3345 17.1352 95.6496 17.4249 94.754 17.4249ZM94.8631 8.63342C93.1645 8.63342 91.8155 9.13112 90.8535 10.1127C89.8923 11.0944 89.4049 12.453 89.4049 14.1509C89.4049 15.7637 89.8806 17.0609 90.8191 18.006C91.7575 18.9514 93.0347 19.4303 94.6147 19.4303C96.2612 19.4303 97.5834 18.9257 98.5449 17.9305C99.5063 16.9364 99.9933 15.5907 99.9933 13.9324C99.9933 12.2944 99.5363 10.9875 98.6344 10.0487C97.7322 9.10949 96.4631 8.63342 94.8631 8.63342ZM85.4501 8.63342C84.2948 8.63342 83.339 8.92896 82.609 9.51165C81.8744 10.0978 81.5018 10.8666 81.5018 11.7969C81.5018 12.2805 81.5823 12.71 81.7405 13.0743C81.8997 13.4399 82.1461 13.7617 82.4735 14.0318C82.7984 14.2997 83.2999 14.5804 83.9644 14.8659C84.5231 15.0958 84.9397 15.2902 85.2044 15.4435C85.4631 15.5937 85.6467 15.7447 85.7504 15.8917C85.8511 16.0357 85.9022 16.2326 85.9022 16.4756C85.9022 17.1677 85.384 17.5044 84.3176 17.5044C83.9221 17.5044 83.4709 17.4218 82.9767 17.259C82.4859 17.0986 82.0228 16.8638 81.6034 16.5627L81.5016 16.4897V18.8512L81.539 18.8686C81.886 19.0288 82.3236 19.1639 82.8394 19.2702C83.3541 19.3766 83.8218 19.4307 84.2281 19.4307C85.4819 19.4307 86.4915 19.1338 87.2282 18.5476C87.9696 17.9574 88.3454 17.1705 88.3454 16.208C88.3454 15.5137 88.1431 14.9183 87.7444 14.4381C87.3484 13.9618 86.6612 13.5245 85.7026 13.138C84.939 12.8315 84.4497 12.5771 84.2479 12.3818C84.0534 12.1931 83.9546 11.9262 83.9546 11.5883C83.9546 11.2888 84.0765 11.0488 84.3268 10.8544C84.5791 10.6591 84.9303 10.5598 85.3707 10.5598C85.7794 10.5598 86.1975 10.6243 86.6134 10.7508C87.0289 10.8774 87.3939 11.0468 87.6985 11.2541L87.7988 11.3226V9.08243L87.7603 9.06591C87.4792 8.94537 87.1086 8.84222 86.6584 8.75853C86.2102 8.67538 85.8037 8.63342 85.4501 8.63342ZM75.1074 17.4249C74.2173 17.4249 73.5152 17.1297 73.0206 16.5482C72.5228 15.9638 72.2711 15.1308 72.2711 14.0719C72.2711 12.9797 72.5231 12.1248 73.0212 11.5301C73.5157 10.9392 74.2108 10.6393 75.0877 10.6393C75.9379 10.6393 76.6149 10.9257 77.1 11.491C77.5875 12.0593 77.8348 12.9073 77.8348 14.0122C77.8348 15.1308 77.6021 15.99 77.1434 16.5648C76.6879 17.1352 76.0032 17.4249 75.1074 17.4249ZM75.2167 8.63342C73.5178 8.63342 72.1686 9.13112 71.2072 10.1127C70.2459 11.0944 69.7582 12.453 69.7582 14.1509C69.7582 15.7644 70.2343 17.0609 71.1727 18.006C72.1112 18.9514 73.3882 19.4303 74.9683 19.4303C76.6145 19.4303 77.9371 18.9257 78.8985 17.9305C79.8597 16.9364 80.347 15.5907 80.347 13.9324C80.347 12.2944 79.8898 10.9875 78.9878 10.0487C78.0853 9.10949 76.8165 8.63342 75.2167 8.63342ZM66.0349 10.6654V8.88157H63.6119V19.1819H66.0349V13.9129C66.0349 13.017 66.238 12.2809 66.6389 11.7249C67.0346 11.1756 67.562 10.8973 68.2059 10.8973C68.4242 10.8973 68.6691 10.9332 68.9345 11.0044C69.1971 11.0752 69.3873 11.152 69.4994 11.2329L69.6013 11.3067V8.86396L69.562 8.84711C69.3364 8.75125 69.0172 8.70288 68.6133 8.70288C68.0044 8.70288 67.4595 8.89852 66.9928 9.28373C66.5831 9.6223 66.2871 10.0865 66.0607 10.6654H66.0349ZM59.2729 8.63342C58.1613 8.63342 57.1698 8.87178 56.3265 9.34166C55.4814 9.81262 54.8278 10.485 54.3832 11.34C53.9405 12.1929 53.7157 13.1891 53.7157 14.3002C53.7157 15.2734 53.9336 16.1665 54.3644 16.9537C54.7953 17.7421 55.4053 18.3589 56.1774 18.7867C56.9485 19.214 57.8397 19.4306 58.8264 19.4306C59.9778 19.4306 60.961 19.2004 61.7492 18.7464L61.781 18.7282V16.5084L61.6792 16.5827C61.3221 16.8428 60.9231 17.0504 60.4938 17.2C60.0656 17.3494 59.6751 17.4249 59.3328 17.4249C58.382 17.4249 57.6188 17.1275 57.0648 16.541C56.5096 15.9537 56.2281 15.1291 56.2281 14.0914C56.2281 13.0472 56.5217 12.2013 57.1002 11.5772C57.6771 10.955 58.4417 10.6393 59.3728 10.6393C60.1691 10.6393 60.9452 10.909 61.6794 11.4416L61.781 11.5154V9.17645L61.7482 9.15797C61.4719 9.0033 61.0951 8.87559 60.6273 8.77874C60.1614 8.68212 59.7058 8.63342 59.2729 8.63342ZM52.0469 8.88168H49.624V19.1819H52.0469V8.88168ZM50.8602 4.49368C50.4615 4.49368 50.1136 4.62944 49.8279 4.89845C49.5409 5.16823 49.3954 5.50789 49.3954 5.90874C49.3954 6.30329 49.5392 6.63676 49.8234 6.89936C50.1058 7.1612 50.4547 7.29391 50.8604 7.29391C51.2659 7.29391 51.6161 7.1612 51.9018 6.89979C52.1894 6.63676 52.3353 6.3034 52.3353 5.90874C52.3353 5.52191 52.1933 5.18572 51.9137 4.90932C51.6342 4.63346 51.2797 4.49368 50.8602 4.49368ZM44.8148 8.1217V19.1819H47.2875V4.809H43.8652L39.5151 15.4848L35.2937 4.809H31.7319V19.1818H34.0557V8.12062H34.1354L38.5932 19.1819H40.3468L44.735 8.1217H44.8148Z" fill="#706D6E"/>
<path d="M11.9564 11.4044H0.558105V0.00610352H11.9564V11.4044Z" fill="#F1511B"/>
<path d="M24.5411 11.4044H13.1431V0.00610352H24.5411V11.4044Z" fill="#80CC28"/>
<path d="M11.9561 23.9939H0.558105V12.5957H11.9561V23.9939Z" fill="#00ADEF"/>
<path d="M24.5411 23.9939H13.1431V12.5957H24.5411V23.9939Z" fill="#FBBC09"/>
</g>
<defs>
<clipPath id="clip0">
<rect width="112.36" height="24" fill="white" transform="translate(0.558105)"/>
</clipPath>
</defs>
</svg>
