<svg width="78" height="25" viewBox="0 0 78 25" fill="none" xmlns="http://www.w3.org/2000/svg">
<path fill-rule="evenodd" clip-rule="evenodd" d="M13.4539 15.3041C12.8451 15.3041 12.3685 15.5703 12.3685 15.9587C12.3685 16.3474 12.8476 16.612 13.4539 16.612C14.0599 16.612 14.5394 16.3456 14.5394 15.9587C14.5394 15.5703 14.0623 15.3041 13.4539 15.3041ZM13.4539 16.4249C13.0198 16.4249 12.6978 16.2267 12.6978 15.9587C12.6978 15.691 13.0174 15.4912 13.4539 15.4912C13.8852 15.4912 14.2096 15.694 14.2096 15.9587C14.2096 16.2218 13.8823 16.4249 13.4539 16.4249ZM24.016 13.0144H18.7319L19.3325 7.27407L15.901 13.0144H10.9941L18.7798 0.0396118H24.0009L23.3982 5.85868L26.8948 0.0396118H31.802L24.016 13.0144ZM24.6535 13.0144L32.4387 0.0396118H37.3456L29.5603 13.0144H24.6535Z" fill="#5D646C"/>
<path fill-rule="evenodd" clip-rule="evenodd" d="M10.4282 8.54221C3.57129 13.575 -2.89689 20.2714 2.81641 23.3551C8.35256 26.3434 15.2724 24.5741 19.9907 23.3944C24.709 22.2148 76.8599 8.06044 76.8599 8.06044C77.3631 7.90317 77.269 7.70653 76.6397 7.80472C76.3861 7.84436 19.8651 17.4179 19.8651 17.4179C12.6928 18.6762 4.51478 15.9337 10.4282 8.54221Z" fill="#5D646C"/>
<path fill-rule="evenodd" clip-rule="evenodd" d="M13.6385 16.0047C13.7907 16.0001 13.9098 15.951 13.9098 15.8194C13.9098 15.6496 13.7322 15.6069 13.4356 15.6069H13.0093V16.3108H13.2936V16.0111H13.3415L13.6005 16.3108H13.9274L13.6385 16.0047ZM13.4561 15.8907H13.294V15.7273H13.4307C13.5146 15.7273 13.6107 15.7334 13.6107 15.8017C13.6107 15.8748 13.5551 15.8907 13.4561 15.8907ZM62.7794 0C62.1706 0 61.6939 0.266455 61.6939 0.654632C61.6939 1.04306 62.1734 1.30773 62.7794 1.30773C63.3853 1.30773 63.8648 1.04127 63.8648 0.654632C63.8652 0.266455 63.3886 0 62.7794 0ZM62.7794 1.12106C62.3453 1.12106 62.0233 0.922879 62.0233 0.654889C62.0233 0.387154 62.3428 0.187439 62.7794 0.187439C63.2106 0.187439 63.5355 0.390223 63.5355 0.654889C63.5355 0.918021 63.2082 1.12106 62.7794 1.12106Z" fill="#5D646C"/>
<path fill-rule="evenodd" clip-rule="evenodd" d="M62.965 0.700638C63.1172 0.696035 63.2367 0.646938 63.2367 0.515244C63.2367 0.345448 63.0587 0.302743 62.7625 0.302743H62.3362V1.00647H62.6201V0.707031H62.6684L62.927 1.00647H63.2543L62.965 0.700638ZM62.7821 0.586588H62.6201V0.423186H62.7572C62.8406 0.423186 62.9372 0.429579 62.9372 0.497855C62.9372 0.570734 62.8811 0.586588 62.7821 0.586588ZM59.5466 2.2022L60.8653 0.0396118H45.893L40.7521 3.93212L43.1255 0.0396118H38.1557L30.4326 13.0144H35.3395L38.6368 7.58861L38.8627 13.0144L53.9188 12.9939L55.352 10.4981H49.6277L51.5085 7.35283H56.2264L57.678 4.93478H52.9602L54.5775 2.2022H59.5466ZM43.7307 12.1493L43.416 5.38689L50.8351 0.295839L43.7307 12.1493Z" fill="#5D646C"/>
</svg>
