<svg width="108" height="18" viewBox="0 0 108 18" fill="none" xmlns="http://www.w3.org/2000/svg">
<g clip-path="url(#clip0)">
<path d="M5.75227 17.7779H0.591309V0.291379H9.5171L19.7568 13.3461V0.291379H24.9178V17.7779H16.1728L5.75227 4.50034V17.7779ZM49.6111 12.371C49.6111 14.8017 49.1799 15.6393 48.4652 16.4435C47.3701 17.6404 45.7777 18 42.7077 18H33.896C30.826 18 29.2316 17.64 28.1375 16.4435C27.4241 15.64 26.992 14.8017 26.992 12.371V5.63003C26.992 3.19971 27.4241 2.36242 28.1375 1.55755C29.2316 0.359618 30.8263 0 33.896 0H42.7081C45.7777 0 47.3704 0.359959 48.4652 1.55755C49.1796 2.36208 49.6111 3.19937 49.6111 5.63003V12.371ZM42.491 13.5689C43.6697 13.5689 44.0854 13.5003 44.3676 13.2441C44.6326 13.0046 44.7494 12.6965 44.7494 11.6692V6.33118C44.7494 5.30419 44.6326 4.9978 44.3676 4.75726C44.0854 4.50034 43.6697 4.43244 42.491 4.43244H34.1121C32.9334 4.43244 32.518 4.50034 32.2365 4.75726C31.9708 4.9978 31.8547 5.30453 31.8547 6.33118V11.6692C31.8547 12.6961 31.9704 13.0046 32.2365 13.2441C32.518 13.5003 32.9334 13.5689 34.1121 13.5689H42.491ZM57.1112 0.291379V17.7779H51.7188V0.291379H57.1112ZM66.222 0.291379H73.341L63.7331 8.47081L74.5697 17.7779H66.9517L57.1112 8.65812L66.222 0.291379ZM75.5645 0.291379H80.9587V17.7779H75.5645V0.291379ZM101.52 17.7779L99.9246 14.7317H89.4889L87.9123 17.7779H81.9545L91.5138 0.291038H98.2171L107.776 17.7779H101.52ZM91.3628 10.9335H98.0685L94.715 4.6027L91.3628 10.9335Z" fill="#5D646C"/>
</g>
<defs>
<clipPath id="clip0">
<rect width="107.28" height="18" fill="white" transform="translate(0.543945)"/>
</clipPath>
</defs>
</svg>
