<svg width="70" height="70" viewBox="0 0 70 70" fill="none" xmlns="http://www.w3.org/2000/svg">
<g filter="url(#filter0_d)">
<circle cx="34.7999" cy="21.7999" r="16.7999" fill="white"/>
</g>
<path d="M29.1697 17.8333H29.1462C28.8907 17.8488 28.6347 17.8113 28.3943 17.7234C28.1539 17.6354 27.9342 17.4989 27.749 17.3222C27.5637 17.1456 27.4169 16.9326 27.3176 16.6967C27.2183 16.4607 27.1688 16.2068 27.172 15.9509C27.1753 15.6949 27.2313 15.4424 27.3365 15.209C27.4417 14.9757 27.5939 14.7665 27.7836 14.5946C27.9733 14.4227 28.1964 14.2918 28.4389 14.21C28.6815 14.1282 28.9383 14.0972 29.1933 14.1191C29.4496 14.1006 29.707 14.1352 29.9493 14.2209C30.1915 14.3067 30.4135 14.4416 30.6011 14.6172C30.7887 14.7928 30.9379 15.0054 31.0394 15.2415C31.1409 15.4775 31.1924 15.7321 31.1908 15.989C31.1891 16.246 31.1344 16.4999 31.0299 16.7347C30.9254 16.9694 30.7734 17.18 30.5836 17.3533C30.3938 17.5265 30.1702 17.6586 29.9268 17.7412C29.6835 17.8238 29.4257 17.8552 29.1697 17.8333Z" fill="#858585"/>
<path d="M30.8485 20.3335H27.5151V30.3335H30.8485V20.3335Z" fill="#858585"/>
<path d="M39.5979 20.3335C39.0362 20.335 38.4821 20.4635 37.977 20.7093C37.472 20.9551 37.029 21.3119 36.6812 21.753V20.3335H33.3479V30.3335H36.6812V25.7502C36.6812 25.3081 36.8568 24.8842 37.1694 24.5717C37.482 24.2591 37.9059 24.0835 38.3479 24.0835C38.7899 24.0835 39.2139 24.2591 39.5264 24.5717C39.839 24.8842 40.0146 25.3081 40.0146 25.7502V30.3335H43.3479V24.0835C43.3479 23.591 43.2509 23.1034 43.0624 22.6484C42.874 22.1935 42.5978 21.7801 42.2496 21.4318C41.9013 21.0836 41.4879 20.8074 41.033 20.6189C40.578 20.4305 40.0904 20.3335 39.5979 20.3335Z" fill="#858585"/>
<defs>
<filter id="filter0_d" x="0" y="0" width="69.5999" height="69.5999" filterUnits="userSpaceOnUse" color-interpolation-filters="sRGB">
<feFlood flood-opacity="0" result="BackgroundImageFix"/>
<feColorMatrix in="SourceAlpha" type="matrix" values="0 0 0 0 0 0 0 0 0 0 0 0 0 0 0 0 0 0 127 0"/>
<feOffset dy="13"/>
<feGaussianBlur stdDeviation="9"/>
<feColorMatrix type="matrix" values="0 0 0 0 0.0658854 0 0 0 0 0.0730469 0 0 0 0 0.1375 0 0 0 0.08 0"/>
<feBlend mode="normal" in2="BackgroundImageFix" result="effect1_dropShadow"/>
<feBlend mode="normal" in="SourceGraphic" in2="effect1_dropShadow" result="shape"/>
</filter>
</defs>
</svg>
